<?xml version="1.0" encoding="utf-8"?>
<!-- Generator: Adobe Illustrator 24.2.3, SVG Export Plug-In . SVG Version: 6.00 Build 0)  -->
<svg version="1.1" id="Capa_1" xmlns="http://www.w3.org/2000/svg" xmlns:xlink="http://www.w3.org/1999/xlink" x="0px" y="0px"
	 viewBox="0 0 1920 1080" style="enable-background:new 0 0 1920 1080;" xml:space="preserve">
<style type="text/css">
	.st0{fill:#FFFFFF;}
	.st1{fill:#089A9A;}
	.st2{fill:#00AFFC;}
	.st3{fill:#099A9A;}
	.st4{fill:#7EDEDE;}
</style>
<g>
	<g>
		<path class="st0" d="M514.85,30c275.05,0,550.1,0,825.14,0c0,312.34,0,624.67,0,937.01c-275.05,0-550.1,0-825.14,0
			C514.85,654.67,514.85,342.34,514.85,30z M962.01,177.78c-4.42,9.37-8.73,18.37-12.92,27.43c-4.53,9.79-8.96,19.62-13.42,29.44
			c-4.24,9.32-8.52,18.62-12.7,27.97c-3.37,7.53-6.62,15.12-9.97,22.67c-0.39,0.88-0.92,1.88-1.67,2.4
			c-5.89,4.03-11.85,7.95-17.78,11.9c-13.81,9.22-27.63,18.42-41.43,27.66c-9.9,6.63-19.79,13.25-29.64,19.95
			c-9.86,6.71-19.7,13.46-29.48,20.28c-7.41,5.17-14.73,10.45-22.06,15.73c-10.21,7.36-20.47,14.64-30.54,22.18
			c-7.13,5.34-14,11.03-20.97,16.59c-8.74,6.97-16.56,14.87-23.12,23.91c-3.12,4.3-5.55,9.1-8.39,13.61
			c-5.11,8.09-6.53,17.32-7.26,26.48c-0.66,8.18,1.75,16.25,5.03,23.71c3.82,8.67,9.13,16.52,16.31,22.89
			c5.83,5.18,11.28,11.01,17.77,15.18c11.34,7.28,23,14.23,35.16,19.98c16.35,7.74,33.19,14.49,50.03,21.14
			c18.18,7.19,36.57,13.85,54.93,20.61c14.69,5.41,29.46,10.61,44.19,15.91c4.41,1.58,8.81,3.18,13.22,4.77
			c-5.75,0.5-11.34,0.51-16.93,0.5c-55.86-0.05-111.69,1.08-167.42,5.01c-19.96,1.41-39.92,3.08-59.77,5.5
			c-9.81,1.2-19.4,4.27-29.02,6.77c-1.4,0.36-3.31,2.31-3.31,3.52c0,1.21,1.9,2.96,3.33,3.52c4.16,1.62,8.41,3.36,12.78,4
			c21.36,3.11,42.69,7.08,64.18,8.5c40.72,2.69,81.52,4.63,122.32,5.47c74.92,1.54,149.84,0.66,224.61-5.08
			c21.16-1.62,42.28-4.07,63.34-6.72c6.44-0.81,12.66-3.48,18.9-5.54c0.99-0.33,2.09-1.89,2.17-2.95c0.06-0.85-1.18-2.16-2.15-2.64
			c-2.38-1.19-4.87-2.44-7.45-2.91c-16.49-3.02-33.01-5.86-49.53-8.71c-2.04-0.35-4.13-0.45-6.68-0.71
			c0.94-1.11,1.42-1.88,2.07-2.43c7.44-6.21,12.88-14.13,15.97-23.03c3.12-9.01,5.21-18.57,6.25-28.06
			c1.49-13.58,0.54-27.2-1.64-40.8c-3-18.79-4.92-37.74-7.54-56.59c-2.33-16.74-4.92-33.44-7.53-50.13
			c-2.08-13.36-4.4-26.68-6.54-40.04c-1.24-7.74-2.23-15.51-3.53-23.24c-1.15-6.81-2.63-13.56-3.81-20.36
			c-0.32-1.81-0.66-3.97,0.01-5.53c2.32-5.37,5.18-10.51,7.66-15.82c4.28-9.16,8.43-18.38,12.63-27.57
			c4.34-9.52,8.72-19.02,12.98-28.56c3.55-7.95,6.9-15.99,10.47-23.93c1.81-4.03,3.89-7.94,5.88-11.98
			c0.41,0.04,0.89-0.01,1.29,0.14c5.15,1.88,10.2,4.06,15.45,5.57c3.47,1,7.27,1.65,10.84,1.37c7.35-0.59,12.77-6.24,14.34-11.8
			c1.94-6.87-2.08-13.43-8.41-16.46c-6.83-3.27-13.94-5.98-21.03-8.65c-16.54-6.22-33.13-12.31-49.72-18.38
			c-24.78-9.06-49.59-18.03-74.37-27.09c-20.48-7.49-40.87-15.21-61.41-22.51c-9.1-3.23-17.36-0.47-22.16,7.6
			c-4.72,7.93-1.22,16.46,7.33,20.68C948.22,173.07,954.81,175.04,962.01,177.78z M1337.88,966.39c0-1.82,0-3.03,0-4.25
			c0-17.29,0-34.57,0-51.86c0-4.47,0-4.47-4.36-4.47c-51.7,0-103.4,0-155.11-0.01c-48.34-0.01-96.67,0.06-145.01-0.06
			c-39.89-0.1-79.78-0.55-119.67-0.6c-75.48-0.1-150.95-0.02-226.43-0.01c-55.74,0-111.48,0-167.22,0.01c-1.41,0-2.83,0-4.24,0
			c0,20.15,0,39.84,0,60.12C789.85,965.63,1063.62,966.01,1337.88,966.39z M1132.84,839.62c4.65-0.61,9.41-0.77,13.92-1.92
			c11.84-3.04,20.3-9.98,23.34-22.31c1.8-7.3,1.98-14.66,0.69-22.15c-2.17-12.65-9.41-20.4-21.69-23.46
			c-8.14-2.03-16.43-2.04-24.68-0.74c-15.86,2.5-27.13,13.62-28.14,30.07c-0.27,4.46-0.21,8.98,0.23,13.42
			c0.89,9.16,5.08,16.48,13.03,21.41C1116.69,838.36,1124.66,839.16,1132.84,839.62z M792.89,838.75c3.45-0.32,6.93-0.46,10.36-0.98
			c14.91-2.26,26.64-12.52,28.02-28.63c0.46-5.42,0.5-11.04-0.38-16.39c-1.73-10.53-7.58-18.32-17.99-21.71
			c-10.44-3.4-21.19-4.68-32.01-1.94c-9.74,2.47-17.52,7.85-21.53,17.37c-2.55,6.06-4.22,12.53-3.58,19.18
			c0.44,4.59,1.55,9.15,2.71,13.63c1.68,6.51,6,10.98,11.71,14.32C777.24,837.73,784.97,838.46,792.89,838.75z M718.08,800.47
			c2.07-1.65,3.7-2.97,5.36-4.28c5.46-4.29,5.76-16.39,0.53-20.84c-3.77-3.2-8.18-5.38-13-5.65c-10.72-0.62-21.47-0.7-32.21-0.91
			c-3.55-0.07-4.11,2.47-4.11,5.28c0,19.4-0.02,38.81,0.03,58.21c0.01,3.85,1.23,5.16,5,5.2c7.95,0.08,15.94,0.42,23.86-0.15
			c10.63-0.76,21.15-2.18,27.18-13.08c1.62-2.93,2.4-11.89,0.49-14.7C728.05,804.96,723.98,801.74,718.08,800.47z M900.28,806.19
			c1.75-0.89,3-1.62,4.32-2.19c10.35-4.42,12.59-14.35,9.22-22.78c-2.69-6.73-8.86-10.04-15.56-10.62
			c-11.36-0.98-22.81-0.95-34.23-1.13c-3.04-0.05-4.66,2.12-4.72,5.28c-0.03,1.57-0.01,3.14-0.01,4.72
			c0,18.08,0.08,36.15-0.08,54.23c-0.03,3.09,1.18,4.4,3.93,4.49c3.24,0.11,6.49,0.02,9.73-0.1c2.31-0.08,3.29-1.31,3.25-3.72
			c-0.11-6.85-0.04-13.7-0.04-20.54c0-1.19,0-2.37,0-3.59c7.11-0.74,13.04-0.1,16.24,7c1.64,3.63,3.48,7.19,5.42,10.67
			c6.55,11.78,2.04,10.48,16.44,10.41c4.86-0.02,5.6-1.21,3.55-5.75c-2.15-4.77-4.78-9.32-6.83-14.13
			C908.73,813.32,905.48,809.26,900.28,806.19z M1215.7,810.28c10.6-1.06,14.29,1.02,18.47,10.02c2.17,4.67,4.65,9.22,6.49,14.01
			c1.07,2.78,2.77,3.9,5.43,3.96c3.36,0.07,6.72-0.02,10.08-0.06c2.76-0.04,3.71-1.43,2.57-3.92c-1.33-2.92-2.98-5.69-4.31-8.61
			c-3.39-7.44-6.29-15.21-14.49-19.63c1.41-0.56,2.35-0.86,3.22-1.3c2.52-1.31,5.61-2.13,7.4-4.12c8.53-9.44,4.04-24.96-8.15-28.31
			c-12.77-3.51-25.92-2.74-38.97-2.77c-3.28-0.01-3.63,2.42-3.63,4.94c-0.01,20.08,0.03,40.15-0.04,60.23
			c-0.01,2.36,1.08,3.33,3.12,3.45c2.68,0.16,5.38,0.22,8.06,0.12c4.31-0.15,4.73-0.64,4.75-4.98
			C1215.72,825.71,1215.7,818.1,1215.7,810.28z M1003.28,838.41c0.67,0,1.35,0.01,2.02,0c7.31-0.08,8.05-1.4,5.02-8.04
			c-2.99-6.54-5.85-13.15-8.58-19.81c-5.21-12.72-10.23-25.52-15.51-38.21c-0.52-1.24-2.26-2.65-3.54-2.76
			c-4.78-0.43-9.6-0.46-14.41-0.43c-3.09,0.02-4.66,2.25-5.72,4.84c-4.19,10.3-8.38,20.59-12.51,30.92
			c-2.98,7.44-5.83,14.94-8.81,22.38c-0.86,2.14-1.91,4.21-2.96,6.26c-1.34,2.62-0.59,4.39,2.44,4.63c3.22,0.25,6.49,0.03,9.73-0.02
			c2.21-0.04,3.41-1.22,4-3.35c0.66-2.37,1.5-4.7,2.4-7c2.1-5.4,2.13-5.38,7.79-5.38c5.38,0,10.76,0,16.14,0
			c8.89,0,8.89,0,11.79,8.3C995.22,838.35,995.22,838.35,1003.28,838.41z M641.75,837.69c1.12,0,2.24,0.03,3.36,0
			c5.48-0.15,6.05-0.82,4.01-5.93c-3.17-7.93-6.65-15.74-9.88-23.65c-4.83-11.84-9.62-23.7-14.26-35.62
			c-0.99-2.54-2.39-3.96-5.08-3.98c-4.48-0.04-8.98-0.24-13.44,0.04c-1.39,0.09-3.37,1.23-3.93,2.43
			c-3.33,7.13-6.45,14.36-9.4,21.66c-3.6,8.88-6.97,17.86-10.44,26.8c-0.24,0.63-0.5,1.25-0.75,1.87c-1.7,4.21-3.5,8.39-5.08,12.65
			c-0.8,2.15,0.2,3.58,2.52,3.64c3.13,0.09,6.31,0.27,9.4-0.16c1.33-0.19,2.97-1.54,3.6-2.8c1.73-3.46,2.87-7.22,4.55-10.71
			c0.47-0.99,1.99-2.05,3.05-2.08c6.61-0.19,13.23-0.1,19.85-0.1c8.2,0,8.2,0,10.83,7.85C633.35,837.69,633.35,837.69,641.75,837.69
			z M1338.59,770.93c-0.34-0.41-0.67-0.82-1.01-1.23c-2.78,0-5.6,0.3-8.33-0.06c-5.19-0.69-8.05,1.92-10.08,6.22
			c-3.62,7.65-7.3,15.28-10.98,22.9c-0.11,0.24-0.52,0.33-0.81,0.51c-0.31-0.23-0.69-0.37-0.81-0.63
			c-3.65-7.52-7.28-15.04-10.91-22.57c-1.96-4.07-4.6-6.98-9.7-6.4c-2.21,0.25-4.48-0.02-6.72,0.11c-3.83,0.21-4.48,1.21-2.68,4.54
			c3.45,6.37,7,12.69,10.65,18.94c2.79,4.77,5.82,9.39,8.73,14.09c1.97,3.19,3.15,6.49,2.92,10.43c-0.33,5.81-0.02,11.66-0.11,17.5
			c-0.03,2.01,0.56,3.39,2.65,3.47c3.57,0.12,7.16,0.18,10.72-0.01c2.44-0.13,3.59-1.46,3.5-4.2c-0.21-6.39-0.09-12.79-0.05-19.18
			c0.01-1.21-0.08-2.62,0.46-3.61c3.46-6.36,7.02-12.67,10.68-18.91c2.85-4.86,6.02-9.54,8.8-14.44
			C1336.84,776.06,1337.59,773.42,1338.59,770.93z M1040.51,780.95c0,1.83,0,3.16,0,4.49c0,16.04,0.08,32.08-0.09,48.12
			c-0.03,3.18,1.07,4.62,4.07,4.66c3.13,0.05,6.26-0.04,9.39-0.14c2.66-0.08,3.46-1.48,3.44-4.15c-0.12-16.26-0.06-32.53-0.06-48.8
			c0-1.3,0-2.61,0-4.2c5.79,0,11.15-0.01,16.51,0c5.05,0.01,5.67-0.63,5.62-5.85c-0.01-0.78,0-1.57-0.07-2.35
			c-0.21-2.37-1.28-3.48-3.9-3.47c-17.6,0.09-35.19,0.11-52.79-0.01c-3.15-0.02-4.23,1.38-4.32,4.15c-0.04,1.12-0.04,2.24,0.01,3.36
			c0.15,2.9,1.29,4.4,4.61,4.24C1028.63,780.76,1034.34,780.95,1040.51,780.95z M532.54,825.69c-0.18-3.39-0.47-6.39-0.47-9.38
			c0.03-12.51,0.18-25.01,0.23-37.51c0.04-10.64-1.18-11.69-11.87-10.37c-0.33,0.04-0.66,0.13-0.99,0.18
			c-2.73,0.43-4.05,1.56-4.02,4.8c0.19,19.07,0.27,38.15-0.02,57.23c-0.09,5.62,2.82,6.91,7.07,6.9
			c10.88-0.02,21.75-0.15,32.62,0.07c3.52,0.07,4.6-1.51,4.75-4.51c0.05-1.01,0.04-2.02,0.01-3.03c-0.1-3.07-1.32-4.58-4.77-4.46
			C547.7,825.86,540.3,825.69,532.54,825.69z"/>
		<path d="M962.01,177.78c-7.2-2.74-13.79-4.71-19.87-7.71c-8.55-4.22-12.05-12.75-7.33-20.68c4.8-8.07,13.06-10.83,22.16-7.6
			c20.55,7.29,40.94,15.02,61.41,22.51c24.78,9.06,49.59,18.03,74.37,27.09c16.6,6.07,33.18,12.16,49.72,18.38
			c7.09,2.67,14.2,5.38,21.03,8.65c6.32,3.03,10.35,9.58,8.41,16.46c-1.57,5.56-6.99,11.21-14.34,11.8
			c-3.57,0.29-7.36-0.37-10.84-1.37c-5.25-1.51-10.31-3.7-15.45-5.57c-0.4-0.15-0.87-0.1-1.29-0.14c-1.99,4.04-4.07,7.95-5.88,11.98
			c-3.56,7.94-6.91,15.98-10.47,23.93c-4.27,9.55-8.64,19.05-12.98,28.56c-4.19,9.2-8.35,18.42-12.63,27.57
			c-2.48,5.31-5.34,10.45-7.66,15.82c-0.67,1.56-0.33,3.72-0.01,5.53c1.18,6.8,2.67,13.55,3.81,20.36c1.3,7.73,2.29,15.5,3.53,23.24
			c2.14,13.35,4.46,26.68,6.54,40.04c2.6,16.7,5.2,33.4,7.53,50.13c2.62,18.85,4.54,37.81,7.54,56.59
			c2.17,13.61,3.12,27.22,1.64,40.8c-1.04,9.49-3.13,19.05-6.25,28.06c-3.09,8.9-8.53,16.82-15.97,23.03
			c-0.66,0.55-1.14,1.32-2.07,2.43c2.55,0.27,4.64,0.36,6.68,0.71c16.52,2.85,33.04,5.69,49.53,8.71c2.58,0.47,5.07,1.73,7.45,2.91
			c0.97,0.48,2.21,1.79,2.15,2.64c-0.08,1.06-1.18,2.63-2.17,2.95c-6.24,2.06-12.46,4.73-18.9,5.54
			c-21.06,2.65-42.18,5.09-63.34,6.72c-74.77,5.74-149.69,6.63-224.61,5.08c-40.8-0.84-81.6-2.78-122.32-5.47
			c-21.49-1.42-42.82-5.39-64.18-8.5c-4.37-0.64-8.63-2.37-12.78-4c-1.44-0.56-3.33-2.31-3.33-3.52c0-1.21,1.91-3.15,3.31-3.52
			c9.62-2.5,19.21-5.58,29.02-6.77c19.85-2.42,39.81-4.1,59.77-5.5c55.74-3.93,111.57-5.06,167.42-5.01c5.59,0,11.18,0,16.93-0.5
			c-4.41-1.59-8.81-3.18-13.22-4.77c-14.73-5.3-29.5-10.5-44.19-15.91c-18.35-6.76-36.74-13.42-54.93-20.61
			c-16.83-6.66-33.67-13.41-50.03-21.14c-12.16-5.75-23.82-12.71-35.16-19.98c-6.5-4.17-11.94-9.99-17.77-15.18
			c-7.17-6.37-12.49-14.21-16.31-22.89c-3.28-7.47-5.69-15.53-5.03-23.71c0.74-9.15,2.15-18.39,7.26-26.48
			c2.85-4.51,5.28-9.31,8.39-13.61c6.55-9.05,14.37-16.95,23.12-23.91c6.97-5.55,13.84-11.25,20.97-16.59
			c10.07-7.54,20.34-14.83,30.54-22.18c7.33-5.28,14.65-10.56,22.06-15.73c9.78-6.82,19.62-13.58,29.48-20.28
			c9.85-6.7,19.74-13.33,29.64-19.95c13.8-9.24,27.62-18.44,41.43-27.66c5.93-3.96,11.89-7.88,17.78-11.9
			c0.76-0.52,1.28-1.52,1.67-2.4c3.35-7.54,6.59-15.13,9.97-22.67c4.18-9.34,8.46-18.65,12.7-27.97
			c4.47-9.82,8.89-19.65,13.42-29.44C953.28,196.15,957.59,187.15,962.01,177.78z M740.61,454.15c-1.28,0.82-2.86,1.39-3.79,2.5
			c-3.43,4.11-6.56,8.47-9.97,12.59c-3.87,4.69-5.55,10.1-6,16.05c-0.82,10.82,5.01,18.44,12.22,25.33
			c8.79,8.4,18.94,14.95,29.7,20.46c9.45,4.83,19.06,9.39,28.8,13.59c9.74,4.2,19.74,7.81,29.63,11.68
			c9.8,3.83,19.56,7.79,29.41,11.47c12.14,4.54,24.34,8.93,36.57,13.24c22.98,8.11,46,16.12,69.01,24.16
			c19.18,6.7,38.7,12.13,58.94,14.28c10.58,1.12,21.23,1.45,31.72-1.51c9.17-2.59,15.8-8.14,19.73-16.66
			c3.89-8.44,5.35-17.64,5.21-26.77c-0.18-11.6-1.57-23.19-2.7-34.76c-0.12-1.23-1.71-2.84-2.98-3.33
			c-7.29-2.85-14.75-5.27-22.04-8.14c-4.2-1.66-8.37-3.58-12.19-5.97c-2.45-1.53-1.99-4.52-0.49-6.62c2.32-3.27,5.99-4.12,9.91-2.73
			c4.64,1.65,9.24,3.4,13.87,5.06c3.85,1.38,7.73,2.69,12.03,4.17c-0.12-1.22-0.15-1.86-0.24-2.5c-1.9-12.95-3.93-25.88-5.63-38.85
			c-0.41-3.14-1.65-4.61-4.59-5.63c-9.62-3.34-19.16-6.9-28.66-10.56c-2.31-0.89-4.74-2.07-5.23-5.08
			c-0.87-5.34,4.71-9.24,10.41-7.18c7.15,2.58,14.27,5.25,21.41,7.85c1.18,0.43,2.43,0.68,4.31,1.21
			c-1.14-5.58-2.33-10.44-3.09-15.37c-1.47-9.53-2.66-19.1-4.09-28.63c-0.14-0.92-0.92-2.19-1.71-2.51
			c-4.57-1.8-9.26-3.28-13.85-5.02c-6.26-2.38-12.58-4.66-18.66-7.45c-3.6-1.65-3.61-6.77-0.51-9.2c2.74-2.15,5.57-2.45,8.81-1.22
			c7.41,2.81,14.87,5.47,22.71,8.34c-0.49-3.31-0.88-6.29-1.39-9.25c-2.03-11.77-4.07-23.55-6.24-35.3
			c-0.18-0.97-1.26-2.11-2.2-2.52c-3.07-1.35-6.28-2.36-9.42-3.56c-6.47-2.48-13.01-4.81-19.36-7.58c-3.82-1.67-4.08-7.67-0.64-9.76
			c2.8-1.71,5.74-2.17,8.97-0.92c6.88,2.66,13.86,5.05,20.74,7.72c2.12,0.82,3.04,0.13,3.85-1.71c2.2-4.99,4.49-9.94,6.75-14.89
			c4.02-8.79,8.06-17.57,12.07-26.36c4.29-9.41,8.61-18.81,12.82-28.25c3.54-7.95,6.95-15.95,10.43-23.93
			c0.35-0.81,0.87-1.55,1.24-2.35c2.44-5.28,4.86-10.58,7.32-15.95c-31.89-11.68-63.52-23.27-94.97-34.79
			c-1.87,3.66-3.58,6.77-5.07,9.99c-4.21,9.07-8.34,18.18-12.47,27.29c-4.72,10.44-9.42,20.9-14.1,31.36
			c-3,6.71-5.95,13.45-8.92,20.17c-0.18,0.41-0.34,0.83-0.53,1.23c-3.72,7.93-7.45,15.86-11.25,23.95c1.43,0.61,2.43,1.09,3.46,1.47
			c6.92,2.56,13.85,5.09,20.78,7.63c3.03,1.11,4.61,3.55,4.27,6.77c-0.34,3.2-2.19,5.41-5.37,5.42c-2.81,0.01-5.73-0.63-8.42-1.55
			c-7.93-2.7-15.75-5.72-23.65-8.51c-0.9-0.32-2.23-0.32-3.02,0.13c-2.32,1.31-4.45,2.95-6.69,4.42
			c-7.36,4.83-14.76,9.61-22.09,14.48c-3.86,2.57-7.62,5.3-11.8,8.22c2.12,0.84,3.67,1.47,5.23,2.06c6.49,2.43,13.07,4.64,19.42,7.4
			c1.59,0.69,3.12,3.03,3.38,4.8c0.24,1.64-0.81,4.05-2.11,5.19c-2.36,2.07-5.42,2.41-8.53,1.25c-9.53-3.55-19.06-7.12-28.67-10.45
			c-1.38-0.48-3.51-0.12-4.79,0.67c-8.13,5.04-16.16,10.25-24.14,15.53c-4.88,3.23-9.61,6.7-14.85,10.37
			c5.68,2.1,10.92,3.92,16.06,6c4.2,1.7,8.48,3.36,12.34,5.69c2.98,1.79,2.59,5.46,0.13,7.87c-2.9,2.84-5.91,2.97-9.53,1.6
			c-10.04-3.79-20.13-7.42-30.25-10.98c-1.04-0.37-2.65-0.22-3.57,0.36c-3.95,2.49-7.76,5.2-11.58,7.9
			c-5.37,3.79-10.73,7.6-16.05,11.46c-3.45,2.5-6.82,5.12-10.61,7.97c1.75,0.76,2.84,1.3,3.99,1.71c6.95,2.48,13.92,4.92,20.88,7.39
			c4.03,1.43,6.03,5.3,4.77,9.08c-1.16,3.46-5.32,5.36-9.15,4.01c-8.97-3.15-17.99-6.21-26.85-9.67c-5.03-1.96-9.54-3.14-13.41,1.92
			c-0.31,0.41-0.98,0.53-1.42,0.88c-6.8,5.41-13.65,10.77-20.31,16.35c-1.05,0.88-1.18,2.85-1.83,4.59
			c-0.2-0.04-0.96-0.18-1.71-0.32L740.61,454.15z"/>
		<path d="M1337.88,966.39c-274.25-0.38-548.03-0.76-822.03-1.14c0-20.28,0-39.97,0-60.12c1.41,0,2.82,0,4.24,0
			c55.74,0,111.48,0,167.22-0.01c75.48,0,150.95-0.08,226.43,0.01c39.89,0.05,79.78,0.5,119.67,0.6
			c48.34,0.12,96.67,0.05,145.01,0.06c51.7,0.01,103.4,0.01,155.11,0.01c4.35,0,4.36,0.01,4.36,4.47c0,17.29,0,34.57,0,51.86
			C1337.88,963.36,1337.88,964.57,1337.88,966.39z M569.71,952.92c5.04,0,10.08-0.03,15.12,0.01c2.78,0.02,4.15-1.27,4.15-4.06
			c-0.01-8.97-0.03-17.94,0-26.91c0.01-2.75-1.14-4.22-3.98-4.22c-10.19,0.01-20.39-0.04-30.58,0.03c-3.12,0.02-4.64,1.68-4.65,4.76
			c-0.03,8.52-0.03,17.04-0.01,25.56c0.01,3.65,1.07,4.75,4.83,4.81C559.63,952.98,564.67,952.92,569.71,952.92z M683.6,945.54
			c0.09-0.85,0.18-1.29,0.18-1.74c0.02-3.47,0.05-6.95,0.01-10.42c-0.06-5.46-2.41-7.58-7.84-6.81c-1.7,0.24-3.31,1.13-5.2,1.81
			c-2.74-2.59-6.11-2.48-9.65-0.99c-1.03,0.43-2.17,1.37-2.95-0.36c-0.85,0.46-2.44,0.91-2.45,1.38
			c-0.06,5.03,0.06,10.07,0.33,15.09c0.04,0.77,1.09,1.48,1.67,2.22c0.56-0.78,1.56-1.52,1.61-2.33c0.2-2.9,0.07-5.82,0.09-8.73
			c0.02-3.17,2.14-5.58,4.96-5.21c2.91,0.39,3.88,2.57,3.85,5.32c-0.03,2.91-0.09,5.83,0.06,8.74c0.04,0.74,0.87,1.44,1.34,2.16
			c0.63-0.7,1.74-1.36,1.8-2.11c0.22-2.78,0.1-5.6,0.11-8.4c0.01-3.89,1.56-5.91,4.76-5.74c3.82,0.2,3.35,3.18,3.37,5.74
			c0.02,3.42,0,6.84,0,10.38C681.19,945.54,682.26,945.54,683.6,945.54z M809.63,926.66c0,8.62-0.07,16.35,0.1,24.07
			c0.02,0.85,1.42,1.68,2.19,2.51c0.62-0.83,1.63-1.6,1.77-2.51c0.28-1.86,0.08-3.78,0.08-5.72c7.07,1.76,10.31,1.03,12.41-2.68
			c2.16-3.84,1.52-11.19-1.23-13.98c-2.39-2.43-6.7-2.47-10.71-0.38C812.51,927.47,811.19,927.1,809.63,926.66z M786.6,934.24
			c0-4.49-0.08-8.59,0.03-12.69c0.07-3.02-1.17-3.74-4.11-2.6c0,8.44-0.04,16.82,0.08,25.2c0.01,0.61,1.32,1.78,1.81,1.68
			c0.82-0.18,1.96-1.09,2.09-1.84c0.31-1.78,0.1-3.66,0.1-5.51c4.69,1.6,5.81,8.61,12.47,6.97c-3.23-3.58-6.01-6.65-8.6-9.52
			c2.59-3.02,5.05-5.9,7.94-9.28C792.22,926.28,790.67,931.43,786.6,934.24z M651.28,945.88c-0.16-3.06-0.31-5.18-0.37-7.3
			c-0.06-2.13,0.23-4.3-0.11-6.38c-0.24-1.53-0.85-3.45-1.97-4.31c-3.38-2.6-10.66-1.77-14.66,1.92c1.95,0.14,3.17,0.37,4.37,0.28
			c1.77-0.12,3.54-0.74,5.27-0.63c2.46,0.15,3.54,1.55,2.77,3.45c-3.81,1.08-7.11,1.94-10.35,2.96c-2.19,0.69-2.96,2.62-2.4,4.57
			c0.46,1.62,1.46,3.52,2.81,4.37c3.47,2.19,7.07,1.35,9.6-0.31C648.21,945.05,649.53,945.4,651.28,945.88z M617.27,933.5
			c-2.66,0.3-5.12,0.39-7.51,0.88c-4.27,0.88-5.99,3.25-5.44,7.02c0.46,3.13,2.98,4.81,7.09,4.57c3.02-0.17,5.92-2.46,9.06-0.47
			c0.08,0.05,0.36-0.2,0.54-0.31c0-4.24,0.3-8.52-0.14-12.71c-0.19-1.83-1.66-4.78-2.94-5c-3.6-0.63-7.4-0.17-11.12,0.06
			c-0.42,0.03-0.76,1.32-1.13,2.03c0.8,0.27,1.62,0.8,2.39,0.75c2.09-0.15,4.18-0.86,6.24-0.76
			C616.31,929.65,617.99,930.69,617.27,933.5z M742.93,936.13c-0.09,6.38,3.26,9.9,9.5,9.99c6.08,0.09,9.35-3.23,9.44-9.6
			c0.09-6.61-2.83-9.9-8.87-10.01C746.27,926.41,743.02,929.51,742.93,936.13z M831.09,917.92c0,9.38-0.03,17.76,0.06,26.15
			c0.01,0.61,0.92,1.2,1.42,1.81c0.66-0.7,1.85-1.37,1.89-2.11c0.21-3.46,0.1-6.94,0.11-10.42c0.01-3.36,2.88-3.58,4.94-3.79
			c2.15-0.21,4.02,1.03,3.96,3.83c-0.08,3.36-0.13,6.73,0.06,10.08c0.05,0.83,1.04,1.6,1.59,2.4c0.58-0.76,1.64-1.49,1.67-2.27
			c0.17-3.91,0.19-7.85,0.04-11.76c-0.13-3.5-1.73-5.17-5.24-5.23c-2.25-0.04-4.52,0.61-6.57,0.92
			C833,924.86,837.07,920.02,831.09,917.92z M880.8,936.38c-0.28,4.82,3.88,9.92,9.53,9.79c6.18-0.15,9.31-3.21,9.36-9.68
			c0.05-6.98-2.89-9.66-9.59-10.1C885.01,926.06,880.38,931.57,880.8,936.38z M687.39,950.34c0.39,3.18,2.25,3.42,4.12,1.8
			c2.04-1.76,3.87-3.9,5.3-6.19c1.57-2.5,2.69-5.31,3.81-8.06c1.45-3.55,2.71-7.17,4.05-10.76c-0.4-0.21-0.8-0.43-1.2-0.64
			c-5.61,1.75-4.52,8.46-7.89,12.28c-1.55-3.46-3.12-6.53-4.31-9.73c-1-2.69-2.55-2.92-4.92-1.95c1.83,4.57,3.42,9.03,5.38,13.33
			C694.19,945.77,692.95,948.02,687.39,950.34z M868.28,936.35c-0.01-7.02-2.72-9.91-9.27-9.86c-6.01,0.05-9.07,3.46-9,10
			c0.07,6.34,3.39,9.72,9.45,9.62C865.44,946.02,868.29,942.86,868.28,936.35z M723.7,926.51c-1.22,0-1.56-0.02-1.89,0
			c-2.88,0.17-5.38,0.92-5.87,4.31c-0.5,3.38,0.5,4.63,4.47,5.82c0.96,0.29,2.13,0.42,2.79,1.05c0.78,0.76,1.64,2.07,1.48,2.98
			c-0.15,0.84-1.49,1.85-2.47,2.06c-1.24,0.27-2.63-0.3-3.96-0.29c-0.91,0.01-1.82,0.38-2.74,0.59c0.63,0.77,1.23,2.17,1.89,2.2
			c2.81,0.14,5.68,0.12,8.45-0.32c2.73-0.43,3.28-2.83,3.24-5.17c-0.04-2.26-0.85-4.1-3.45-4.69c-1.4-0.32-2.8-0.9-4.01-1.68
			c-0.7-0.45-1.53-1.63-1.37-2.25c0.18-0.71,1.32-1.51,2.15-1.64c1.03-0.16,2.18,0.55,3.25,0.46c0.81-0.07,1.57-0.79,2.36-1.22
			c-0.51-0.61-0.91-1.53-1.56-1.77C725.33,926.55,724.05,926.56,723.7,926.51z M773.72,926.33c-5.11,0.17-7.8,1.88-9.72,6.33
			c-1.37,3.17-0.04,8.84,2.84,11.27c3,2.52,6.59,2.63,10.15,1.69c1.2-0.32,2.15-1.53,3.22-2.34c-1.23-0.21-2.45-0.61-3.68-0.59
			c-2.63,0.04-5.45,0.99-7.43-1.61c-1.61-2.12-1.65-7.53-0.02-9.63c1.95-2.5,4.57-2.41,7.3-1.52c0.42,0.14,0.96,0.41,1.28,0.27
			c0.73-0.32,1.37-0.86,2.04-1.31c-0.47-0.59-0.83-1.52-1.43-1.71C776.83,926.72,775.25,926.6,773.72,926.33z M876.28,925.45
			c-0.27-1.06,0.58-4.47-2.63-3.09c-1.85,0.79-2.78,3.75-4.04,5.79c-0.12,0.19,0.29,1.04,0.52,1.07c2.84,0.34,1.92,2.51,1.98,4.1
			c0.1,2.57-0.02,5.16,0.05,7.73c0.09,3.73,2.64,5.79,6.27,4.98c0.71-0.16,1.27-0.99,1.89-1.5c-0.56-0.55-1.1-1.14-1.7-1.64
			c-0.74-0.62-2.16-1.15-2.19-1.77c-0.21-3.75-0.1-7.52-0.1-10.39c1.62-1.25,2.53-1.95,3.44-2.66
			C878.84,927.36,877.9,926.66,876.28,925.45z M737.78,925.49c0.01,0.13,0.08-0.35-0.08-0.74c-0.37-0.89-0.86-1.74-1.3-2.61
			c-0.62,0.74-1.22,1.49-1.87,2.2c-0.7,0.77-1.43,1.5-2.15,2.26c-0.42,0.44-1.23,0.96-1.16,1.31c0.12,0.59,0.71,1.18,1.25,1.55
			c0.47,0.33,1.14,0.37,1.79,0.56c0,3.79-0.07,7.36,0.02,10.94c0.09,3.58,2.44,5.61,5.93,5.08c0.8-0.12,1.5-0.97,2.24-1.49
			c-0.65-0.56-1.29-1.14-1.95-1.68c-0.9-0.73-2.56-1.38-2.63-2.16c-0.28-3.62-0.13-7.28-0.13-10.25c1.85-0.97,3.08-1.62,4.3-2.27
			C740.82,927.42,739.6,926.65,737.78,925.49z M625.81,931.83c0,3.8,0.02,7.6-0.01,11.39c-0.01,1.43-0.01,2.76,1.99,2.7
			c1.72-0.06,2.21-0.96,2.2-2.6c-0.06-7.59,0.04-15.19-0.13-22.78c-0.02-0.85-1.41-1.68-2.16-2.51c-0.63,0.8-1.76,1.58-1.8,2.42
			C625.7,924.23,625.81,928.03,625.81,931.83z"/>
		<path d="M1132.84,839.62c-8.19-0.46-16.16-1.26-23.3-5.69c-7.96-4.93-12.14-12.25-13.03-21.41c-0.43-4.44-0.5-8.97-0.23-13.42
			c1.01-16.45,12.28-27.56,28.14-30.07c8.25-1.3,16.54-1.29,24.68,0.74c12.28,3.06,19.52,10.81,21.69,23.46
			c1.28,7.49,1.11,14.85-0.69,22.15c-3.04,12.32-11.51,19.27-23.34,22.31C1142.26,838.85,1137.49,839.01,1132.84,839.62z
			 M1133.49,827.68c11.31,0.65,20.48-7.5,20.84-18.79c0.14-4.25,0.32-8.55-0.19-12.74c-0.87-7.21-4.27-12.94-11.63-15.21
			c-12.48-3.85-27.06,0.12-28.9,16.7c-0.47,4.28-0.39,8.23,0.13,12.42C1115.25,822.29,1121.08,827.66,1133.49,827.68z"/>
		<path d="M792.89,838.75c-7.91-0.29-15.64-1.03-22.69-5.15c-5.71-3.34-10.02-7.82-11.71-14.32c-1.16-4.48-2.27-9.04-2.71-13.63
			c-0.64-6.65,1.03-13.12,3.58-19.18c4-9.53,11.78-14.9,21.53-17.37c10.82-2.74,21.57-1.46,32.01,1.94
			c10.4,3.38,16.26,11.18,17.99,21.71c0.88,5.35,0.85,10.96,0.38,16.39c-1.38,16.11-13.11,26.38-28.02,28.63
			C799.82,838.29,796.34,838.43,792.89,838.75z M814.54,802.91c-0.32-3.21-0.37-6.27-0.97-9.21c-0.8-3.93-1.98-7.66-5.43-10.4
			c-6.11-4.85-13.01-4.91-20.09-3.74c-6.86,1.13-11.52,5.8-13.59,11.86c-2.63,7.69-2.47,16.02,0.34,23.69
			c1.31,3.59,4.27,7.18,7.45,9.34c4.63,3.14,10.44,3.12,15.94,2.3c7.97-1.18,13.72-6.63,15.28-14.34
			C814.1,809.24,814.21,805.96,814.54,802.91z"/>
		<path d="M718.08,800.47c5.9,1.27,9.97,4.49,13.12,9.09c1.92,2.8,1.14,11.77-0.49,14.7c-6.03,10.89-16.55,12.32-27.18,13.08
			c-7.92,0.57-15.9,0.22-23.86,0.15c-3.76-0.04-4.99-1.35-5-5.2c-0.04-19.4-0.03-38.81-0.03-58.21c0-2.82,0.56-5.35,4.11-5.28
			c10.74,0.21,21.49,0.29,32.21,0.91c4.82,0.28,9.23,2.45,13,5.65c5.24,4.45,4.93,16.55-0.53,20.84
			C721.78,797.49,720.15,798.82,718.08,800.47z M690.56,807.19c0,6.81,0,13.02,0,19.58c3.41,0,6.65,0.26,9.83-0.07
			c3.61-0.37,7.25-0.98,10.71-2.03c3.49-1.06,4.35-4.22,4.36-7.54c0.02-3.34-1.14-6.02-4.29-7.7
			C704.63,805.92,697.64,807.81,690.56,807.19z M690.5,796.99c3.51,0,6.63,0.06,9.74-0.03c1.44-0.04,2.9-0.26,4.32-0.57
			c3.46-0.75,7.22-5.26,7.32-8.67c0.09-3.01-2.91-7.17-6.35-7.7c-4.89-0.76-9.88-0.87-15.02-1.27
			C690.5,785.21,690.5,790.89,690.5,796.99z"/>
		<path d="M900.28,806.19c5.2,3.07,8.45,7.13,10.63,12.25c2.05,4.81,4.68,9.36,6.83,14.13c2.05,4.53,1.31,5.72-3.55,5.75
			c-14.4,0.07-9.89,1.37-16.44-10.41c-1.94-3.49-3.78-7.04-5.42-10.67c-3.2-7.11-9.13-7.75-16.24-7c0,1.22,0,2.4,0,3.59
			c0,6.85-0.07,13.7,0.04,20.54c0.04,2.41-0.94,3.64-3.25,3.72c-3.24,0.11-6.49,0.21-9.73,0.1c-2.75-0.1-3.96-1.4-3.93-4.49
			c0.16-18.07,0.08-36.15,0.08-54.23c0-1.57-0.03-3.14,0.01-4.72c0.06-3.16,1.69-5.33,4.72-5.28c11.42,0.18,22.87,0.15,34.23,1.13
			c6.7,0.58,12.87,3.89,15.56,10.62c3.38,8.43,1.14,18.36-9.22,22.78C903.28,804.57,902.04,805.3,900.28,806.19z M876.35,779.67
			c0,7.08,0,13.28,0,20.34c5.62-0.7,10.94-1.06,16.12-2.12c3.59-0.74,5.49-4.47,5.38-8.72c-0.11-4.13-2.1-7.32-5.85-7.95
			C886.97,780.38,881.83,780.18,876.35,779.67z"/>
		<path d="M1215.7,810.28c0,7.82,0.02,15.43-0.01,23.04c-0.01,4.35-0.43,4.83-4.75,4.98c-2.68,0.1-5.38,0.04-8.06-0.12
			c-2.04-0.12-3.13-1.1-3.12-3.45c0.07-20.08,0.04-40.15,0.04-60.23c0-2.52,0.34-4.95,3.63-4.94c13.05,0.03,26.2-0.74,38.97,2.77
			c12.19,3.35,16.68,18.87,8.15,28.31c-1.79,1.98-4.88,2.81-7.4,4.12c-0.86,0.45-1.81,0.74-3.22,1.3
			c8.2,4.42,11.09,12.19,14.49,19.63c1.33,2.92,2.97,5.69,4.31,8.61c1.14,2.49,0.19,3.88-2.57,3.92c-3.36,0.05-6.72,0.14-10.08,0.06
			c-2.65-0.06-4.35-1.17-5.43-3.96c-1.84-4.79-4.32-9.34-6.49-14.01C1230,811.3,1226.3,809.22,1215.7,810.28z M1215.97,780.25
			c0,6.52,0,12.71,0,19.09c3.61,0,6.96-0.03,10.31,0.01c4.03,0.04,7.34-1.57,10.17-4.34c2.6-2.55,2.28-8.01-0.48-10.5
			C1230.1,779.24,1223.07,780.1,1215.97,780.25z"/>
		<path d="M1003.28,838.41c-8.06-0.06-8.06-0.06-10.72-7.67c-2.89-8.3-2.89-8.3-11.79-8.3c-5.38,0-10.76,0-16.14,0
			c-5.66,0-5.69-0.01-7.79,5.38c-0.89,2.3-1.74,4.62-2.4,7c-0.59,2.13-1.79,3.31-4,3.35c-3.25,0.05-6.51,0.28-9.73,0.02
			c-3.03-0.24-3.78-2.01-2.44-4.63c1.05-2.06,2.11-4.12,2.96-6.26c2.98-7.44,5.83-14.94,8.81-22.38
			c4.13-10.32,8.32-20.62,12.51-30.92c1.05-2.59,2.62-4.82,5.72-4.84c4.81-0.03,9.63,0,14.41,0.43c1.28,0.12,3.02,1.52,3.54,2.76
			c5.28,12.69,10.3,25.49,15.51,38.21c2.73,6.66,5.59,13.26,8.58,19.81c3.04,6.65,2.29,7.96-5.02,8.04
			C1004.63,838.41,1003.96,838.41,1003.28,838.41z M974.09,782.79c-3.91,9.96-7.51,19.11-11.25,28.63c7.6,0,14.9,0,22.5,0
			C981.62,801.94,978.02,792.77,974.09,782.79z"/>
		<path d="M641.75,837.69c-8.41-0.01-8.41-0.01-11.11-8.07c-2.63-7.85-2.63-7.85-10.83-7.85c-6.62,0-13.24-0.09-19.85,0.1
			c-1.07,0.03-2.58,1.09-3.05,2.08c-1.68,3.49-2.81,7.25-4.55,10.71c-0.63,1.26-2.27,2.61-3.6,2.8c-3.08,0.43-6.26,0.25-9.4,0.16
			c-2.32-0.07-3.31-1.5-2.52-3.64c1.58-4.26,3.37-8.44,5.08-12.65c0.25-0.62,0.51-1.25,0.75-1.87c3.47-8.94,6.84-17.92,10.44-26.8
			c2.96-7.29,6.07-14.53,9.4-21.66c0.56-1.2,2.54-2.34,3.93-2.43c4.46-0.29,8.96-0.08,13.44-0.04c2.7,0.02,4.1,1.44,5.08,3.98
			c4.64,11.92,9.43,23.78,14.26,35.62c3.23,7.91,6.71,15.71,9.88,23.65c2.04,5.11,1.47,5.78-4.01,5.93
			C644,837.72,642.87,837.69,641.75,837.69z M612.81,782.91c-0.26,0-0.52,0-0.78,0c-3.47,9.17-6.93,18.34-10.48,27.73
			c7.71,0,14.7,0,22.13,0C619.97,801.18,616.39,792.05,612.81,782.91z"/>
		<path d="M1338.59,770.93c-1,2.49-1.75,5.13-3.06,7.45c-2.78,4.9-5.95,9.58-8.8,14.44c-3.66,6.25-7.22,12.55-10.68,18.91
			c-0.54,0.99-0.45,2.4-0.46,3.61c-0.04,6.39-0.16,12.79,0.05,19.18c0.09,2.75-1.06,4.08-3.5,4.2c-3.57,0.19-7.15,0.13-10.72,0.01
			c-2.09-0.07-2.68-1.46-2.65-3.47c0.09-5.83-0.22-11.68,0.11-17.5c0.22-3.94-0.95-7.24-2.92-10.43c-2.91-4.7-5.94-9.32-8.73-14.09
			c-3.66-6.25-7.2-12.58-10.65-18.94c-1.8-3.33-1.16-4.33,2.68-4.54c2.24-0.12,4.5,0.15,6.72-0.11c5.1-0.58,7.74,2.33,9.7,6.4
			c3.63,7.53,7.26,15.05,10.91,22.57c0.13,0.26,0.5,0.4,0.81,0.63c0.29-0.17,0.7-0.27,0.81-0.51c3.68-7.62,7.37-15.25,10.98-22.9
			c2.03-4.29,4.89-6.9,10.08-6.22c2.73,0.36,5.55,0.06,8.33,0.06C1337.92,770.11,1338.25,770.52,1338.59,770.93z"/>
		<path d="M1040.51,780.95c-6.17,0-11.88-0.19-17.57,0.07c-3.32,0.16-4.46-1.34-4.61-4.24c-0.06-1.12-0.05-2.24-0.01-3.36
			c0.09-2.77,1.17-4.17,4.32-4.15c17.6,0.12,35.19,0.11,52.79,0.01c2.62-0.01,3.69,1.1,3.9,3.47c0.07,0.78,0.06,1.57,0.07,2.35
			c0.05,5.22-0.57,5.85-5.62,5.85c-5.36-0.01-10.72,0-16.51,0c0,1.59,0,2.89,0,4.2c0,16.27-0.06,32.53,0.06,48.8
			c0.02,2.66-0.78,4.06-3.44,4.15c-3.13,0.1-6.26,0.18-9.39,0.14c-3-0.04-4.1-1.49-4.07-4.66c0.17-16.04,0.08-32.08,0.09-48.12
			C1040.51,784.11,1040.51,782.78,1040.51,780.95z"/>
		<path d="M532.54,825.69c7.75,0,15.15,0.17,22.54-0.08c3.46-0.11,4.67,1.39,4.77,4.46c0.03,1.01,0.04,2.02-0.01,3.03
			c-0.15,3-1.23,4.58-4.75,4.51c-10.87-0.22-21.75-0.1-32.62-0.07c-4.24,0.01-7.15-1.28-7.07-6.9c0.29-19.07,0.21-38.15,0.02-57.23
			c-0.03-3.24,1.29-4.37,4.02-4.8c0.33-0.05,0.66-0.14,0.99-0.18c10.68-1.32,11.91-0.28,11.87,10.37
			c-0.05,12.5-0.2,25.01-0.23,37.51C532.07,819.31,532.37,822.3,532.54,825.69z"/>
		<path class="st0" d="M740.5,454.17c0.76,0.14,1.51,0.28,1.71,0.32c0.66-1.74,0.79-3.71,1.83-4.59
			c6.66-5.59,13.51-10.94,20.31-16.35c0.43-0.35,1.1-0.46,1.42-0.88c3.86-5.06,8.38-3.89,13.41-1.92
			c8.86,3.46,17.87,6.52,26.85,9.67c3.84,1.35,7.99-0.56,9.15-4.01c1.27-3.78-0.74-7.65-4.77-9.08c-6.95-2.48-13.92-4.91-20.88-7.39
			c-1.14-0.41-2.24-0.95-3.99-1.71c3.79-2.85,7.16-5.47,10.61-7.97c5.32-3.86,10.68-7.67,16.05-11.46c3.82-2.69,7.63-5.4,11.58-7.9
			c0.92-0.58,2.53-0.73,3.57-0.36c10.12,3.56,20.22,7.19,30.25,10.98c3.62,1.37,6.64,1.24,9.53-1.6c2.46-2.41,2.84-6.08-0.13-7.87
			c-3.86-2.32-8.14-3.99-12.34-5.69c-5.14-2.08-10.39-3.89-16.06-6c5.23-3.67,9.96-7.14,14.85-10.37
			c7.98-5.28,16.01-10.49,24.14-15.53c1.28-0.79,3.41-1.15,4.79-0.67c9.61,3.32,19.14,6.9,28.67,10.45
			c3.12,1.16,6.18,0.82,8.53-1.25c1.3-1.14,2.35-3.56,2.11-5.19c-0.26-1.77-1.79-4.11-3.38-4.8c-6.35-2.76-12.93-4.97-19.42-7.4
			c-1.57-0.59-3.11-1.22-5.23-2.06c4.18-2.92,7.94-5.65,11.8-8.22c7.33-4.87,14.73-9.65,22.09-14.48c2.23-1.47,4.37-3.1,6.69-4.42
			c0.79-0.45,2.12-0.44,3.02-0.13c7.9,2.79,15.72,5.8,23.65,8.51c2.68,0.91,5.61,1.55,8.42,1.55c3.18-0.01,5.03-2.22,5.37-5.42
			c0.34-3.22-1.24-5.66-4.27-6.77c-6.92-2.55-13.85-5.08-20.78-7.63c-1.03-0.38-2.03-0.86-3.46-1.47c3.8-8.1,7.53-16.02,11.25-23.95
			c0.19-0.41,0.35-0.82,0.53-1.23c2.97-6.73,5.92-13.46,8.92-20.17c4.68-10.46,9.37-20.92,14.1-31.36
			c4.12-9.11,8.26-18.22,12.47-27.29c1.49-3.21,3.2-6.32,5.07-9.99c31.45,11.52,63.08,23.11,94.97,34.79
			c-2.46,5.37-4.88,10.66-7.32,15.95c-0.37,0.8-0.88,1.54-1.24,2.35c-3.48,7.97-6.89,15.98-10.43,23.93
			c-4.21,9.44-8.53,18.84-12.82,28.25c-4.01,8.79-8.05,17.57-12.07,26.36c-2.27,4.96-4.56,9.91-6.75,14.89
			c-0.81,1.84-1.73,2.53-3.85,1.71c-6.88-2.67-13.86-5.06-20.74-7.72c-3.24-1.25-6.17-0.78-8.97,0.92
			c-3.43,2.09-3.18,8.09,0.64,9.76c6.34,2.77,12.88,5.1,19.36,7.58c3.13,1.2,6.35,2.22,9.42,3.56c0.94,0.41,2.02,1.56,2.2,2.52
			c2.17,11.75,4.21,23.52,6.24,35.3c0.51,2.96,0.9,5.94,1.39,9.25c-7.84-2.87-15.3-5.53-22.71-8.34c-3.24-1.23-6.07-0.92-8.81,1.22
			c-3.1,2.43-3.09,7.55,0.51,9.2c6.08,2.79,12.4,5.07,18.66,7.45c4.59,1.74,9.29,3.22,13.85,5.02c0.8,0.31,1.58,1.58,1.71,2.51
			c1.43,9.53,2.62,19.11,4.09,28.63c0.76,4.93,1.95,9.79,3.09,15.37c-1.89-0.52-3.13-0.78-4.31-1.21
			c-7.14-2.6-14.26-5.26-21.41-7.85c-5.7-2.06-11.28,1.84-10.41,7.18c0.49,3.02,2.92,4.19,5.23,5.08
			c9.5,3.66,19.04,7.22,28.66,10.56c2.94,1.02,4.17,2.49,4.59,5.63c1.7,12.97,3.73,25.9,5.63,38.85c0.09,0.63,0.13,1.28,0.24,2.5
			c-4.3-1.49-8.18-2.8-12.03-4.17c-4.63-1.66-9.23-3.42-13.87-5.06c-3.91-1.39-7.59-0.54-9.91,2.73c-1.49,2.1-1.95,5.09,0.49,6.62
			c3.82,2.39,7.99,4.32,12.19,5.97c7.28,2.87,14.75,5.29,22.04,8.14c1.27,0.5,2.86,2.11,2.98,3.33c1.12,11.57,2.51,23.16,2.7,34.76
			c0.14,9.12-1.32,18.33-5.21,26.77c-3.93,8.52-10.56,14.07-19.73,16.66c-10.49,2.96-21.13,2.63-31.72,1.51
			c-20.25-2.15-39.77-7.57-58.94-14.28c-23.01-8.04-46.03-16.05-69.01-24.16c-12.23-4.31-24.43-8.7-36.57-13.24
			c-9.86-3.68-19.61-7.64-29.41-11.47c-9.89-3.87-19.88-7.48-29.63-11.68c-9.74-4.2-19.35-8.76-28.8-13.59
			c-10.77-5.5-20.91-12.05-29.7-20.46c-7.2-6.89-13.04-14.51-12.22-25.33c0.45-5.94,2.13-11.36,6-16.05
			c3.41-4.13,6.54-8.49,9.97-12.59c0.93-1.11,2.51-1.68,3.79-2.5c-0.07,4.94-0.13,9.88-0.22,14.81c-0.05,2.86,1.58,4.13,4.17,4.18
			c5.38,0.1,10.77,0.17,16.15-0.05c1.05-0.04,2.89-1.47,2.93-2.32c0.26-5.71,0.21-11.44,0.08-17.16c-0.04-1.81-1.06-2.44-3.02-1.73
			c-1.89,0.68-3.94,1.01-5.95,1.2c-2.11,0.19-4.28-0.16-6.38,0.08c-2.45,0.28-4.27,1.32-3.57,4.43c0.16,0.73-0.51,1.65-0.8,2.48
			c-0.71-0.6-1.68-1.07-2.08-1.83C741.25,456.98,740.95,455.53,740.5,454.17z"/>
		<path d="M740.5,454.17c0.45,1.37,0.75,2.82,1.42,4.07c0.4,0.76,1.37,1.23,2.08,1.83c0.29-0.83,0.96-1.75,0.8-2.48
			c-0.7-3.11,1.12-4.15,3.57-4.43c2.1-0.24,4.27,0.12,6.38-0.08c2.01-0.18,4.06-0.52,5.95-1.2c1.96-0.71,2.98-0.08,3.02,1.73
			c0.13,5.72,0.18,11.45-0.08,17.16c-0.04,0.85-1.87,2.27-2.93,2.32c-5.37,0.23-10.76,0.15-16.15,0.05
			c-2.6-0.05-4.22-1.32-4.17-4.18c0.09-4.94,0.15-9.87,0.22-14.81C740.61,454.15,740.5,454.17,740.5,454.17z M757.86,470.19
			c-0.25-3.66-0.96-6.62-0.51-9.39c0.64-3.92,0.36-4.92-3.58-5.29c-1.44-0.13-2.99-0.25-4.33,0.16c-1.05,0.32-1.84,1.47-2.74,2.26
			c1.04,0.26,2.06,0.59,3.12,0.77c1.24,0.22,2.5,0.31,4.4,0.53c-2.68,1.05-4.55,1.41-5.94,2.42c-1.38,1-3.32,2.83-3.14,4
			c0.25,1.58,2.09,3.77,3.6,4.11C751.87,470.47,755.23,470.12,757.86,470.19z"/>
		<path class="st0" d="M569.71,952.92c-5.04,0-10.08,0.05-15.12-0.02c-3.76-0.05-4.82-1.16-4.83-4.81
			c-0.02-8.52-0.02-17.04,0.01-25.56c0.01-3.08,1.53-4.74,4.65-4.76c10.19-0.07,20.39-0.02,30.58-0.03c2.84,0,3.99,1.47,3.98,4.22
			c-0.03,8.97-0.01,17.94,0,26.91c0,2.78-1.37,4.08-4.15,4.06C579.79,952.9,574.75,952.92,569.71,952.92z M574.6,932.54
			c-3.74,0.76-7.24,1.31-10.66,2.2c-2.87,0.76-3.53,3.11-3.35,5.81c0.18,2.59,1.59,4.07,4.07,4.65c3.67,0.85,7.09,0.34,9.57-1.66
			c1.55,0.79,2.76,1.4,4.29,2.18c0-5.35,0.01-9.82-0.01-14.29c-0.01-2.46-1.06-4.2-3.39-5.26c-4.09-1.84-8.1-1.13-12.08,0.19
			c-0.53,0.18-0.79,1.18-1.64,2.54c3.45-0.62,5.92-1.24,8.42-1.46C573.08,927.15,575.93,928.77,574.6,932.54z"/>
		<path class="st0" d="M683.6,945.54c-1.33,0-2.4,0-3.95,0c0-3.54,0.01-6.96,0-10.38c-0.01-2.56,0.45-5.54-3.37-5.74
			c-3.2-0.17-4.75,1.85-4.76,5.74c-0.01,2.8,0.12,5.61-0.11,8.4c-0.06,0.75-1.17,1.41-1.8,2.11c-0.47-0.72-1.3-1.42-1.34-2.16
			c-0.16-2.9-0.1-5.82-0.06-8.74c0.03-2.75-0.93-4.93-3.85-5.32c-2.83-0.37-4.94,2.03-4.96,5.21c-0.02,2.91,0.11,5.83-0.09,8.73
			c-0.06,0.81-1.05,1.56-1.61,2.33c-0.58-0.74-1.63-1.46-1.67-2.22c-0.27-5.02-0.39-10.06-0.33-15.09c0.01-0.47,1.59-0.92,2.45-1.38
			c0.78,1.74,1.91,0.8,2.95,0.36c3.54-1.49,6.91-1.6,9.65,0.99c1.9-0.68,3.5-1.57,5.2-1.81c5.43-0.77,7.78,1.34,7.84,6.81
			c0.04,3.47,0,6.95-0.01,10.42C683.78,944.25,683.69,944.69,683.6,945.54z"/>
		<path class="st0" d="M809.63,926.66c1.56,0.44,2.88,0.82,4.61,1.31c4.01-2.08,8.31-2.04,10.71,0.38
			c2.75,2.78,3.39,10.14,1.23,13.98c-2.1,3.71-5.33,4.44-12.41,2.68c0,1.94,0.19,3.87-0.08,5.72c-0.14,0.9-1.15,1.68-1.77,2.51
			c-0.76-0.84-2.17-1.66-2.19-2.51C809.56,943,809.63,935.28,809.63,926.66z M813.77,936.56c0.01,5.37,0.62,6.25,4.36,6.31
			c3.52,0.06,5.72-2.52,5.7-6.68c-0.02-3.53-2.39-6.74-5-6.77C815.12,929.39,813.76,931.31,813.77,936.56z"/>
		<path class="st0" d="M786.6,934.24c4.07-2.81,5.61-7.96,11.82-7.59c-2.89,3.38-5.35,6.26-7.94,9.28c2.59,2.87,5.36,5.94,8.6,9.52
			c-6.66,1.64-7.78-5.37-12.47-6.97c0,1.86,0.21,3.73-0.1,5.51c-0.13,0.75-1.27,1.66-2.09,1.84c-0.49,0.11-1.81-1.07-1.81-1.68
			c-0.12-8.38-0.08-16.76-0.08-25.2c2.94-1.13,4.18-0.42,4.11,2.6C786.53,925.64,786.6,929.74,786.6,934.24z"/>
		<path class="st0" d="M651.28,945.88c-1.75-0.47-3.06-0.83-5.03-1.36c-2.53,1.65-6.13,2.49-9.6,0.31
			c-1.35-0.85-2.34-2.75-2.81-4.37c-0.56-1.94,0.21-3.87,2.4-4.57c3.24-1.03,6.54-1.88,10.35-2.96c0.76-1.9-0.31-3.3-2.77-3.45
			c-1.74-0.11-3.51,0.51-5.27,0.63c-1.2,0.08-2.42-0.14-4.37-0.28c4-3.69,11.27-4.52,14.66-1.92c1.12,0.86,1.73,2.78,1.97,4.31
			c0.33,2.08,0.05,4.25,0.11,6.38C650.97,940.7,651.12,942.81,651.28,945.88z M647.45,936.24c-3.37,0.6-5.67,0.8-7.8,1.5
			c-0.74,0.24-1.43,1.68-1.49,2.62c-0.05,0.73,0.96,2.21,1.43,2.18c2.01-0.11,4.24-0.24,5.92-1.19
			C646.49,940.79,646.6,938.67,647.45,936.24z"/>
		<path class="st0" d="M617.27,933.5c0.72-2.81-0.96-3.86-2.95-3.95c-2.06-0.1-4.15,0.61-6.24,0.76c-0.78,0.05-1.59-0.48-2.39-0.75
			c0.38-0.71,0.72-2,1.13-2.03c3.71-0.23,7.52-0.68,11.12-0.06c1.28,0.22,2.75,3.17,2.94,5c0.44,4.2,0.14,8.47,0.14,12.72
			c-0.18,0.11-0.46,0.36-0.54,0.31c-3.14-1.99-6.05,0.3-9.06,0.47c-4.11,0.24-6.63-1.44-7.09-4.57c-0.55-3.77,1.17-6.14,5.44-7.02
			C612.15,933.89,614.61,933.8,617.27,933.5z M617.94,937.4c-0.33-0.37-0.67-0.73-1-1.1c-2.54,0.58-5.18,0.9-7.59,1.81
			c-2.02,0.77-2.12,3.72-0.27,4c2.34,0.36,4.97-0.14,7.24-0.94C617.2,940.87,617.42,938.71,617.94,937.4z"/>
		<path class="st0" d="M742.93,936.13c0.09-6.62,3.34-9.72,10.06-9.61c6.04,0.1,8.96,3.4,8.87,10.01c-0.09,6.36-3.36,9.69-9.44,9.6
			C746.19,946.03,742.84,942.51,742.93,936.13z M747.15,935.79c-0.17,4.76,1.44,7.06,4.99,7.13c3.69,0.07,5.41-1.88,5.57-6.31
			c0.16-4.58-1.6-7.1-5.04-7.23C749.14,929.25,747.31,931.38,747.15,935.79z"/>
		<path class="st0" d="M831.09,917.92c5.98,2.1,1.91,6.94,3.94,9.6c2.05-0.31,4.31-0.95,6.57-0.92c3.51,0.06,5.1,1.73,5.24,5.23
			c0.15,3.92,0.13,7.85-0.04,11.76c-0.03,0.78-1.09,1.51-1.67,2.27c-0.56-0.8-1.55-1.57-1.59-2.4c-0.18-3.35-0.13-6.72-0.06-10.08
			c0.06-2.8-1.81-4.04-3.96-3.83c-2.06,0.2-4.94,0.43-4.94,3.79c-0.01,3.47,0.1,6.96-0.11,10.42c-0.04,0.74-1.23,1.41-1.89,2.11
			c-0.49-0.6-1.41-1.2-1.42-1.81C831.06,935.69,831.09,927.3,831.09,917.92z"/>
		<path class="st0" d="M880.8,936.38c-0.42-4.81,4.21-10.32,9.3-9.99c6.69,0.43,9.63,3.12,9.59,10.1c-0.04,6.47-3.18,9.54-9.36,9.68
			C884.68,946.3,880.51,941.2,880.8,936.38z M896.11,936.21c-0.04-4.12-2.26-6.81-5.62-6.82c-3.81,0-5.47,2.07-5.44,6.79
			c0.03,4.94,1.52,6.8,5.39,6.74C894,942.88,896.14,940.34,896.11,936.21z"/>
		<path class="st0" d="M687.39,950.34c5.56-2.32,6.8-4.57,4.36-9.92c-1.96-4.3-3.55-8.76-5.38-13.33c2.37-0.97,3.92-0.74,4.92,1.95
			c1.19,3.21,2.75,6.27,4.31,9.73c3.37-3.81,2.28-10.53,7.89-12.28c0.4,0.21,0.8,0.43,1.2,0.64c-1.34,3.59-2.6,7.21-4.05,10.76
			c-1.12,2.75-2.24,5.56-3.81,8.06c-1.43,2.28-3.27,4.43-5.3,6.19C689.64,953.77,687.78,953.53,687.39,950.34z"/>
		<path class="st0" d="M868.28,936.35c0.01,6.51-2.84,9.67-8.81,9.76c-6.07,0.1-9.38-3.28-9.45-9.62c-0.07-6.55,2.99-9.95,9-10
			C865.55,926.44,868.27,929.33,868.28,936.35z M864.74,936.34c0.01-4.76-1.59-6.83-5.35-6.95c-3.57-0.11-5.79,2.6-5.77,7.05
			c0.03,4.43,1.69,6.41,5.45,6.46C863.07,942.96,864.73,941.04,864.74,936.34z"/>
		<path class="st0" d="M723.7,926.51c0.35,0.05,1.63,0.04,2.76,0.46c0.65,0.24,1.05,1.16,1.56,1.77c-0.78,0.43-1.54,1.15-2.36,1.22
			c-1.06,0.09-2.22-0.62-3.25-0.46c-0.82,0.13-1.97,0.93-2.15,1.64c-0.15,0.62,0.67,1.8,1.37,2.25c1.21,0.77,2.61,1.36,4.01,1.68
			c2.6,0.59,3.41,2.43,3.45,4.69c0.04,2.34-0.52,4.74-3.24,5.17c-2.77,0.44-5.64,0.46-8.45,0.32c-0.67-0.03-1.26-1.43-1.89-2.2
			c0.91-0.21,1.82-0.58,2.74-0.59c1.33-0.01,2.72,0.56,3.96,0.29c0.98-0.22,2.33-1.23,2.47-2.06c0.16-0.9-0.7-2.22-1.48-2.98
			c-0.65-0.64-1.83-0.76-2.79-1.05c-3.97-1.19-4.97-2.44-4.47-5.82c0.5-3.39,2.99-4.14,5.87-4.31
			C722.14,926.49,722.48,926.51,723.7,926.51z"/>
		<path class="st0" d="M773.72,926.33c1.53,0.26,3.1,0.39,4.57,0.86c0.6,0.19,0.96,1.12,1.43,1.71c-0.67,0.45-1.31,0.99-2.04,1.31
			c-0.33,0.14-0.86-0.13-1.28-0.27c-2.73-0.89-5.35-0.98-7.3,1.52c-1.63,2.09-1.59,7.51,0.02,9.63c1.99,2.6,4.81,1.65,7.43,1.61
			c1.22-0.02,2.45,0.38,3.68,0.59c-1.07,0.81-2.02,2.02-3.22,2.34c-3.56,0.94-7.15,0.83-10.15-1.69c-2.88-2.42-4.21-8.09-2.84-11.27
			C765.92,928.21,768.62,926.5,773.72,926.33z"/>
		<path class="st0" d="M876.28,925.45c1.62,1.21,2.56,1.91,3.49,2.6c-0.91,0.7-1.82,1.41-3.44,2.66c0,2.87-0.11,6.64,0.1,10.39
			c0.03,0.63,1.46,1.15,2.19,1.77c0.6,0.51,1.13,1.09,1.7,1.64c-0.63,0.52-1.19,1.35-1.89,1.5c-3.63,0.81-6.18-1.25-6.27-4.98
			c-0.06-2.58,0.05-5.16-0.05-7.73c-0.06-1.59,0.86-3.76-1.98-4.1c-0.23-0.03-0.64-0.88-0.52-1.07c1.27-2.03,2.2-5,4.04-5.79
			C876.86,920.99,876.01,924.39,876.28,925.45z"/>
		<path class="st0" d="M737.78,925.49c1.82,1.15,3.04,1.93,4.26,2.7c-1.23,0.65-2.46,1.29-4.3,2.27c0,2.97-0.16,6.63,0.13,10.25
			c0.06,0.78,1.72,1.43,2.63,2.16c0.67,0.54,1.3,1.12,1.95,1.68c-0.74,0.52-1.44,1.37-2.24,1.49c-3.49,0.53-5.83-1.5-5.93-5.08
			c-0.09-3.57-0.02-7.15-0.02-10.94c-0.65-0.19-1.32-0.23-1.79-0.56c-0.54-0.38-1.13-0.97-1.25-1.55c-0.07-0.34,0.74-0.87,1.16-1.31
			c0.72-0.75,1.46-1.48,2.15-2.26c0.65-0.71,1.25-1.47,1.87-2.2c0.44,0.87,0.93,1.71,1.3,2.61
			C737.86,925.14,737.79,925.63,737.78,925.49z"/>
		<path class="st0" d="M625.81,931.83c0-3.8-0.11-7.6,0.09-11.39c0.04-0.83,1.17-1.61,1.8-2.42c0.75,0.84,2.14,1.66,2.16,2.51
			c0.17,7.59,0.07,15.19,0.13,22.78c0.01,1.64-0.48,2.54-2.2,2.6c-2,0.06-2-1.27-1.99-2.7
			C625.82,939.43,625.81,935.63,625.81,931.83z"/>
		<path class="st0" d="M1133.49,827.68c-12.41-0.02-18.24-5.4-19.75-17.63c-0.52-4.19-0.6-8.15-0.13-12.42
			c1.84-16.57,16.42-20.55,28.9-16.7c7.36,2.27,10.76,8,11.63,15.21c0.51,4.2,0.32,8.5,0.19,12.74
			C1153.97,820.18,1144.8,828.33,1133.49,827.68z"/>
		<path class="st0" d="M814.54,802.91c-0.33,3.06-0.43,6.33-1.07,9.49c-1.56,7.72-7.32,13.16-15.28,14.34
			c-5.5,0.82-11.31,0.84-15.94-2.3c-3.18-2.16-6.14-5.75-7.45-9.34c-2.81-7.67-2.97-16-0.34-23.69c2.08-6.06,6.73-10.74,13.59-11.86
			c7.07-1.16,13.98-1.1,20.09,3.74c3.45,2.74,4.64,6.47,5.43,10.4C814.17,796.64,814.22,799.7,814.54,802.91z"/>
		<path class="st0" d="M690.56,807.19c7.08,0.63,14.07-1.26,20.61,2.23c3.15,1.68,4.31,4.36,4.29,7.7
			c-0.02,3.32-0.87,6.48-4.36,7.54c-3.46,1.05-7.1,1.66-10.71,2.03c-3.18,0.33-6.42,0.07-9.83,0.07
			C690.56,820.21,690.56,813.99,690.56,807.19z"/>
		<path class="st0" d="M690.5,796.99c0-6.1,0-11.78,0-18.24c5.14,0.4,10.13,0.51,15.02,1.27c3.44,0.54,6.44,4.7,6.35,7.7
			c-0.1,3.4-3.85,7.92-7.32,8.67c-1.41,0.31-2.87,0.53-4.32,0.57C697.13,797.05,694.02,796.99,690.5,796.99z"/>
		<path class="st0" d="M876.35,779.67c5.48,0.51,10.61,0.71,15.65,1.54c3.75,0.62,5.74,3.82,5.85,7.95
			c0.11,4.25-1.79,7.99-5.38,8.72c-5.18,1.07-10.5,1.42-16.12,2.12C876.35,792.95,876.35,786.76,876.35,779.67z"/>
		<path class="st0" d="M1215.97,780.25c7.1-0.15,14.13-1.02,19.99,4.26c2.77,2.49,3.09,7.95,0.48,10.5
			c-2.83,2.77-6.14,4.38-10.17,4.34c-3.35-0.03-6.7-0.01-10.31-0.01C1215.97,792.97,1215.97,786.77,1215.97,780.25z"/>
		<path class="st0" d="M974.09,782.79c3.92,9.98,7.52,19.14,11.25,28.63c-7.6,0-14.9,0-22.5,0
			C966.58,801.9,970.18,792.76,974.09,782.79z"/>
		<path class="st0" d="M612.81,782.91c3.58,9.13,7.16,18.27,10.87,27.74c-7.43,0-14.42,0-22.13,0c3.55-9.39,7.02-18.56,10.48-27.73
			C612.29,782.92,612.55,782.91,612.81,782.91z"/>
		<path class="st0" d="M757.86,470.19c-2.63-0.07-5.99,0.28-9.11-0.42c-1.51-0.34-3.36-2.53-3.6-4.11c-0.18-1.17,1.76-3,3.14-4
			c1.4-1.02,3.27-1.38,5.94-2.42c-1.9-0.22-3.16-0.32-4.4-0.53c-1.05-0.18-2.08-0.51-3.12-0.77c0.9-0.78,1.69-1.94,2.74-2.26
			c1.34-0.41,2.89-0.29,4.33-0.16c3.93,0.37,4.22,1.37,3.58,5.29C756.89,463.57,757.61,466.53,757.86,470.19z"/>
		<path d="M574.6,932.54c1.33-3.77-1.52-5.39-4.78-5.1c-2.5,0.22-4.96,0.84-8.42,1.46c0.85-1.36,1.11-2.36,1.64-2.54
			c3.98-1.32,8-2.03,12.08-0.19c2.34,1.05,3.38,2.8,3.39,5.26c0.02,4.47,0.01,8.94,0.01,14.29c-1.53-0.78-2.74-1.39-4.29-2.18
			c-2.48,2-5.89,2.51-9.57,1.66c-2.48-0.57-3.89-2.06-4.07-4.65c-0.18-2.7,0.47-5.05,3.35-5.81
			C567.36,933.85,570.86,933.3,574.6,932.54z M574.32,935.13c-2.55,0.39-5.31,0.39-7.66,1.37c-1.12,0.47-1.85,2.77-2,4.31
			c-0.07,0.72,1.58,2.14,2.62,2.33C572.53,944.1,575.44,940.96,574.32,935.13z"/>
		<path d="M813.77,936.56c-0.01-5.26,1.35-7.17,5.06-7.13c2.61,0.03,4.98,3.24,5,6.77c0.02,4.16-2.18,6.74-5.7,6.68
			C814.4,942.81,813.79,941.93,813.77,936.56z"/>
		<path d="M647.45,936.24c-0.86,2.43-0.96,4.55-1.94,5.1c-1.68,0.95-3.9,1.08-5.92,1.19c-0.47,0.02-1.47-1.45-1.43-2.18
			c0.06-0.93,0.75-2.37,1.49-2.62C641.78,937.04,644.08,936.84,647.45,936.24z"/>
		<path d="M617.94,937.4c-0.52,1.31-0.74,3.47-1.61,3.77c-2.27,0.8-4.9,1.3-7.24,0.94c-1.86-0.28-1.75-3.24,0.27-4
			c2.41-0.91,5.05-1.24,7.59-1.81C617.27,936.67,617.61,937.03,617.94,937.4z"/>
		<path d="M747.15,935.79c0.16-4.41,1.99-6.54,5.51-6.41c3.45,0.13,5.2,2.65,5.04,7.23c-0.16,4.43-1.88,6.38-5.57,6.31
			C748.6,942.85,746.98,940.55,747.15,935.79z"/>
		<path d="M896.11,936.21c0.04,4.12-2.11,6.66-5.67,6.72c-3.86,0.06-5.35-1.81-5.39-6.74c-0.03-4.72,1.63-6.8,5.44-6.79
			C893.85,929.4,896.07,932.09,896.11,936.21z"/>
		<path d="M864.74,936.34c-0.01,4.7-1.67,6.62-5.67,6.56c-3.76-0.06-5.43-2.03-5.45-6.46c-0.03-4.45,2.19-7.17,5.77-7.05
			C863.15,929.51,864.75,931.58,864.74,936.34z"/>
		<path class="st0" d="M574.32,935.13c1.12,5.83-1.79,8.97-7.03,8.01c-1.04-0.19-2.69-1.61-2.62-2.33c0.14-1.54,0.87-3.84,2-4.31
			C569.02,935.52,571.78,935.53,574.32,935.13z"/>
	</g>
</g>
<rect x="339.5" y="659.37" class="st0" width="1319.85" height="401.63"/>
<path class="st1" d="M805.89,440.36l-29.1-10.19c0,0-45.11,16.01-56.75,56.75c-11.64,40.75,144.06,85.86,144.06,85.86
	s209.55,96.04,205.18,17.46c0,0,7.28-11.64-1.46-52.39l-32.01-13.1c0,0-26.19-11.64-33.47-26.19
	c-7.28-14.55,17.46-17.46-21.83-11.64c-39.29,5.82-42.2,23.28-61.12,4.37s5.82-13.1-18.92-23.28c-24.74-10.19-10.19-2.91-39.29,0
	c-29.1,2.91-34.92,8.73-30.56-8.73c4.37-17.46,16.01-18.92-4.37-13.1C805.89,452,805.89,440.36,805.89,440.36z"/>
<path class="st2" d="M1165.32,494.2"/>
<g>
	<path class="st1" d="M575.99,690.48c8.1,4.17,14.36,10.11,18.77,17.83c4.41,7.71,6.62,16.66,6.62,26.85s-2.21,19.09-6.62,26.7
		c-4.42,7.62-10.67,13.51-18.77,17.68c-8.1,4.17-17.49,6.26-28.16,6.26h-35.51V684.22h35.51
		C558.5,684.22,567.89,686.31,575.99,690.48z M571.84,759.75c5.82-5.82,8.73-14.02,8.73-24.59c0-10.57-2.91-18.84-8.73-24.81
		c-5.82-5.97-14.07-8.95-24.74-8.95H532.7v67.08h14.41C557.77,768.48,566.02,765.57,571.84,759.75z"/>
	<path class="st1" d="M647.95,700.67v25.47h34.2v16.15h-34.2v26.92h38.56v16.59h-58.94V684.08h58.94v16.59H647.95z"/>
	<path class="st1" d="M778.62,684.22v16.44h-42.35v26.05h32.45v16.15h-32.45v42.93H715.9V684.22H778.62z"/>
	<path class="st1" d="M866.23,766.44h-40.46l-6.69,19.35h-21.39l36.53-101.72h23.72l36.53,101.72h-21.54L866.23,766.44z
		 M860.7,750.14L846,707.65l-14.7,42.49H860.7z"/>
	<path class="st1" d="M984.96,769.64h33.47v16.15h-53.84V684.22h20.37V769.64z"/>
	<path class="st1" d="M1041.94,723.51c3.25-6.3,7.66-11.15,13.24-14.55c5.58-3.39,11.81-5.09,18.7-5.09
		c6.01,0,11.28,1.21,15.79,3.64c4.51,2.43,8.12,5.48,10.84,9.17v-11.5h20.52v80.62h-20.52v-11.79c-2.62,3.78-6.23,6.91-10.84,9.39
		c-4.61,2.47-9.92,3.71-15.93,3.71c-6.79,0-12.98-1.75-18.55-5.24c-5.58-3.49-9.99-8.42-13.24-14.77
		c-3.25-6.35-4.88-13.65-4.88-21.9C1037.06,737.05,1038.68,729.82,1041.94,723.51z M1097.6,732.75c-1.94-3.54-4.56-6.26-7.86-8.15
		c-3.3-1.89-6.84-2.84-10.62-2.84c-3.78,0-7.28,0.92-10.48,2.76c-3.2,1.84-5.8,4.54-7.79,8.08c-1.99,3.54-2.98,7.74-2.98,12.59
		c0,4.85,0.99,9.09,2.98,12.73c1.99,3.64,4.61,6.43,7.86,8.37c3.25,1.94,6.72,2.91,10.41,2.91c3.78,0,7.32-0.95,10.62-2.84
		c3.3-1.89,5.92-4.61,7.86-8.15c1.94-3.54,2.91-7.79,2.91-12.73S1099.54,736.3,1097.6,732.75z"/>
	<path class="st1" d="M1183.09,707.51c4.61-2.42,9.87-3.64,15.79-3.64c6.89,0,13.12,1.7,18.7,5.09c5.58,3.4,9.99,8.22,13.24,14.48
		c3.25,6.26,4.88,13.51,4.88,21.75c0,8.25-1.63,15.55-4.88,21.9c-3.25,6.36-7.66,11.28-13.24,14.77c-5.58,3.49-11.81,5.24-18.7,5.24
		c-6.02,0-11.28-1.19-15.79-3.57c-4.51-2.38-8.13-5.46-10.84-9.24v11.5h-20.37V678.11h20.37v38.85
		C1174.87,713.09,1178.48,709.93,1183.09,707.51z M1211.9,732.61c-1.99-3.54-4.61-6.23-7.86-8.08c-3.25-1.84-6.77-2.76-10.55-2.76
		c-3.69,0-7.16,0.95-10.4,2.84c-3.25,1.89-5.87,4.63-7.86,8.22c-1.99,3.59-2.98,7.81-2.98,12.66c0,4.85,0.99,9.07,2.98,12.66
		c1.99,3.59,4.61,6.33,7.86,8.22c3.25,1.89,6.72,2.84,10.4,2.84c3.78,0,7.3-0.97,10.55-2.91c3.25-1.94,5.87-4.71,7.86-8.29
		c1.99-3.59,2.98-7.86,2.98-12.81C1214.88,740.35,1213.89,736.15,1211.9,732.61z"/>
	<path class="st1" d="M1274.55,783.54c-5.24-2.38-9.39-5.6-12.44-9.68c-3.06-4.07-4.73-8.59-5.02-13.53h20.52
		c0.39,3.11,1.91,5.67,4.58,7.71c2.67,2.04,5.99,3.06,9.97,3.06c3.88,0,6.91-0.78,9.09-2.33c2.18-1.55,3.27-3.54,3.27-5.97
		c0-2.62-1.33-4.58-4-5.89c-2.67-1.31-6.91-2.74-12.73-4.29c-6.02-1.46-10.94-2.96-14.77-4.51c-3.83-1.55-7.13-3.93-9.9-7.13
		c-2.76-3.2-4.15-7.52-4.15-12.95c0-4.46,1.28-8.54,3.86-12.22c2.57-3.69,6.26-6.6,11.06-8.73c4.8-2.13,10.45-3.2,16.95-3.2
		c9.6,0,17.27,2.4,22.99,7.2c5.72,4.8,8.88,11.28,9.46,19.43h-19.5c-0.29-3.2-1.63-5.75-4-7.64c-2.38-1.89-5.55-2.84-9.53-2.84
		c-3.69,0-6.53,0.68-8.51,2.04c-1.99,1.36-2.98,3.25-2.98,5.68c0,2.72,1.36,4.78,4.07,6.18c2.71,1.41,6.94,2.84,12.66,4.29
		c5.82,1.46,10.62,2.96,14.41,4.51c3.78,1.55,7.06,3.95,9.82,7.2c2.76,3.25,4.19,7.54,4.29,12.88c0,4.66-1.29,8.83-3.86,12.51
		c-2.57,3.69-6.26,6.57-11.06,8.66s-10.4,3.13-16.81,3.13C1285.7,787.1,1279.78,785.92,1274.55,783.54z"/>
</g>
<g>
	<path d="M611.24,811.55h11.46v1.33c-0.49,0.26-1.03,0.47-1.62,0.65s-1.17,0.3-1.73,0.37v19.84h6.74l2.34-6.25h1.43
		c0.09,0.54,0.18,1.16,0.26,1.89c0.08,0.72,0.15,1.48,0.19,2.27c0.05,0.79,0.08,1.57,0.1,2.34c0.02,0.77,0.02,1.44,0,2.03h-19.17
		v-1.33c0.54-0.28,1.04-0.5,1.52-0.66c0.48-0.16,0.93-0.28,1.34-0.35v-19.77c-1.14-0.19-2.1-0.52-2.86-1.01V811.55z"/>
	<path d="M654.3,830.93c0,0.51,0.01,0.96,0.02,1.33c0.01,0.37,0.04,0.77,0.09,1.19l2.41,0.35v1.22c-0.28,0.14-0.66,0.28-1.14,0.42
		c-0.48,0.14-0.98,0.27-1.5,0.4c-0.52,0.13-1.04,0.23-1.55,0.31c-0.51,0.08-0.97,0.15-1.36,0.19h-1.19
		c-0.23-0.54-0.37-1.07-0.42-1.61c-0.05-0.54-0.08-1.19-0.1-1.96h-0.17c-0.12,0.47-0.31,0.91-0.59,1.34s-0.63,0.82-1.07,1.15
		c-0.43,0.34-0.94,0.61-1.52,0.82c-0.58,0.21-1.23,0.31-1.96,0.31c-0.77,0-1.48-0.12-2.13-0.35c-0.65-0.23-1.22-0.56-1.71-0.98
		c-0.49-0.42-0.87-0.93-1.15-1.52c-0.28-0.59-0.42-1.26-0.42-2.01c0-1.05,0.2-1.91,0.59-2.58c0.4-0.68,1.02-1.23,1.87-1.66
		c0.85-0.43,1.94-0.75,3.28-0.96c1.34-0.21,2.96-0.36,4.87-0.45c0.19-2,0.1-3.47-0.24-4.4c-0.35-0.93-1.11-1.4-2.27-1.4
		c-0.72,0-1.39,0.12-1.99,0.35l-1.64,4.19h-1.54c-0.19-0.28-0.37-0.6-0.54-0.96c-0.17-0.36-0.34-0.75-0.49-1.15
		c-0.15-0.41-0.28-0.82-0.38-1.24c-0.1-0.42-0.18-0.83-0.23-1.22c0.88-0.6,2.03-1.08,3.42-1.43s2.88-0.52,4.44-0.52
		c1.33,0,2.41,0.15,3.25,0.44c0.84,0.29,1.5,0.69,1.97,1.19c0.48,0.5,0.81,1.09,1,1.76c0.19,0.68,0.28,1.4,0.28,2.17
		c0,1.4-0.03,2.66-0.09,3.79C654.33,828.58,654.3,829.74,654.3,830.93z M646.44,833.62c0.49,0,0.91-0.09,1.26-0.28
		c0.35-0.19,0.65-0.41,0.89-0.66c0.24-0.26,0.43-0.54,0.56-0.84c0.13-0.3,0.23-0.57,0.3-0.8v-3.49c-1.09,0.02-1.99,0.09-2.69,0.21
		c-0.7,0.12-1.25,0.31-1.64,0.58c-0.4,0.27-0.67,0.61-0.82,1.01c-0.15,0.41-0.23,0.9-0.23,1.48c0,0.88,0.21,1.57,0.63,2.06
		C645.11,833.37,645.7,833.62,646.44,833.62z"/>
	<path d="M666.66,812.59l-2.65-0.28v-1.33c0.35-0.14,0.81-0.28,1.38-0.42c0.57-0.14,1.16-0.26,1.78-0.37
		c0.62-0.1,1.22-0.2,1.82-0.28c0.59-0.08,1.1-0.14,1.52-0.19h1.19v12.08h0.07c0.47-1.16,1.18-2.07,2.13-2.72
		c0.95-0.65,2.08-0.98,3.39-0.98c2.05,0,3.64,0.71,4.78,2.13c1.14,1.42,1.71,3.57,1.71,6.46c0,3.19-0.84,5.59-2.53,7.19
		c-1.69,1.61-4.16,2.41-7.42,2.41c-0.58,0-1.23-0.04-1.96-0.12c-0.72-0.08-1.42-0.18-2.1-0.3c-0.68-0.12-1.3-0.26-1.87-0.42
		c-0.57-0.16-0.98-0.33-1.24-0.49V812.59z M675.01,820.91c-0.89,0-1.6,0.32-2.13,0.96c-0.54,0.64-0.93,1.45-1.19,2.43v9.25
		c0.33,0.23,0.73,0.42,1.2,0.56s1.02,0.21,1.62,0.21c1.33,0,2.3-0.59,2.92-1.78c0.62-1.19,0.93-3.05,0.93-5.59
		c0-1.84-0.25-3.31-0.75-4.4C677.11,821.45,676.24,820.91,675.01,820.91z"/>
	<path d="M692.93,827.26c0-1.42,0.22-2.69,0.65-3.82c0.43-1.13,1.05-2.09,1.85-2.88c0.8-0.79,1.78-1.4,2.92-1.82
		c1.14-0.42,2.43-0.63,3.88-0.63c1.63,0,3.03,0.23,4.21,0.68c1.18,0.45,2.14,1.08,2.9,1.89c0.76,0.8,1.31,1.77,1.66,2.9
		c0.35,1.13,0.52,2.36,0.52,3.68c0,1.42-0.21,2.7-0.63,3.82c-0.42,1.13-1.03,2.09-1.83,2.88c-0.8,0.79-1.78,1.4-2.93,1.82
		c-1.15,0.42-2.45,0.63-3.89,0.63c-1.58,0-2.96-0.23-4.12-0.68c-1.16-0.45-2.13-1.08-2.9-1.89c-0.77-0.8-1.34-1.77-1.71-2.9
		C693.11,829.82,692.93,828.59,692.93,827.26z M698.34,827.26c0,1.05,0.06,2.01,0.19,2.88c0.13,0.87,0.35,1.61,0.68,2.22
		c0.33,0.61,0.77,1.08,1.33,1.41c0.56,0.34,1.28,0.51,2.17,0.51c0.51,0,0.98-0.12,1.4-0.37c0.42-0.24,0.78-0.64,1.08-1.19
		c0.3-0.55,0.53-1.27,0.68-2.17s0.23-2,0.23-3.3c0-1.07-0.06-2.04-0.19-2.9c-0.13-0.86-0.35-1.59-0.66-2.2s-0.74-1.08-1.27-1.41
		c-0.54-0.34-1.21-0.51-2.03-0.51c-0.61,0-1.13,0.12-1.57,0.37c-0.44,0.24-0.81,0.64-1.12,1.19c-0.3,0.55-0.53,1.27-0.68,2.17
		C698.41,824.86,698.34,825.96,698.34,827.26z"/>
	<path d="M729.7,822.55c-0.28,0.14-0.61,0.37-0.98,0.7c-0.37,0.33-0.71,0.86-1.01,1.61v8.97c0.47,0.05,0.93,0.13,1.4,0.26
		c0.47,0.13,0.93,0.32,1.4,0.58v1.33h-10.13v-1.33c0.42-0.23,0.81-0.41,1.19-0.53c0.37-0.12,0.74-0.22,1.12-0.32v-12.85l-2.31-0.28
		v-1.33c0.37-0.16,0.83-0.31,1.38-0.45c0.55-0.14,1.11-0.26,1.69-0.37c0.58-0.11,1.15-0.19,1.69-0.26c0.55-0.07,1.01-0.13,1.38-0.17
		h1.19v4.64h0.14c0.19-0.51,0.46-1.05,0.82-1.61s0.79-1.07,1.27-1.54c0.49-0.46,1.02-0.84,1.61-1.12s1.19-0.41,1.82-0.38
		c0.26,0.33,0.48,0.79,0.66,1.38s0.34,1.16,0.45,1.69v1.36H729.7z"/>
	<path d="M758.02,830.93c0,0.51,0.01,0.96,0.02,1.33c0.01,0.37,0.04,0.77,0.09,1.19l2.41,0.35v1.22c-0.28,0.14-0.66,0.28-1.14,0.42
		c-0.48,0.14-0.98,0.27-1.5,0.4c-0.52,0.13-1.04,0.23-1.55,0.31c-0.51,0.08-0.97,0.15-1.36,0.19h-1.19
		c-0.23-0.54-0.37-1.07-0.42-1.61c-0.05-0.54-0.08-1.19-0.1-1.96h-0.17c-0.12,0.47-0.31,0.91-0.59,1.34s-0.63,0.82-1.07,1.15
		c-0.43,0.34-0.94,0.61-1.52,0.82c-0.58,0.21-1.23,0.31-1.96,0.31c-0.77,0-1.48-0.12-2.13-0.35c-0.65-0.23-1.22-0.56-1.71-0.98
		c-0.49-0.42-0.87-0.93-1.15-1.52c-0.28-0.59-0.42-1.26-0.42-2.01c0-1.05,0.2-1.91,0.59-2.58c0.4-0.68,1.02-1.23,1.87-1.66
		c0.85-0.43,1.94-0.75,3.28-0.96c1.34-0.21,2.96-0.36,4.87-0.45c0.19-2,0.1-3.47-0.24-4.4c-0.35-0.93-1.11-1.4-2.27-1.4
		c-0.72,0-1.39,0.12-1.99,0.35l-1.64,4.19h-1.54c-0.19-0.28-0.37-0.6-0.54-0.96c-0.17-0.36-0.34-0.75-0.49-1.15
		c-0.15-0.41-0.28-0.82-0.38-1.24c-0.1-0.42-0.18-0.83-0.23-1.22c0.88-0.6,2.03-1.08,3.42-1.43s2.88-0.52,4.44-0.52
		c1.33,0,2.41,0.15,3.25,0.44c0.84,0.29,1.5,0.69,1.97,1.19c0.48,0.5,0.81,1.09,1,1.76c0.19,0.68,0.28,1.4,0.28,2.17
		c0,1.4-0.03,2.66-0.09,3.79C758.05,828.58,758.02,829.74,758.02,830.93z M750.17,833.62c0.49,0,0.91-0.09,1.26-0.28
		c0.35-0.19,0.65-0.41,0.89-0.66c0.24-0.26,0.43-0.54,0.56-0.84c0.13-0.3,0.23-0.57,0.3-0.8v-3.49c-1.09,0.02-1.99,0.09-2.69,0.21
		c-0.7,0.12-1.25,0.31-1.64,0.58c-0.4,0.27-0.67,0.61-0.82,1.01c-0.15,0.41-0.23,0.9-0.23,1.48c0,0.88,0.21,1.57,0.63,2.06
		C748.84,833.37,749.42,833.62,750.17,833.62z"/>
	<path d="M768.33,819.4c0.88-0.57,1.82-0.98,2.79-1.22v-2.83c0.19-0.14,0.65-0.34,1.38-0.61c0.73-0.27,1.55-0.48,2.46-0.65h1.19
		v4.44h4.61v2.27h-4.61v9c0,1.44,0.18,2.43,0.54,2.99c0.36,0.56,0.96,0.83,1.8,0.83c0.42,0,0.89-0.03,1.41-0.09s1.01-0.17,1.45-0.33
		l0.24,1.15c-0.21,0.21-0.52,0.43-0.93,0.66s-0.87,0.45-1.4,0.66c-0.52,0.21-1.09,0.38-1.71,0.52c-0.62,0.14-1.26,0.21-1.94,0.21
		c-1.51,0-2.64-0.39-3.39-1.18c-0.75-0.79-1.12-2.06-1.12-3.83v-10.6h-2.79V819.4z"/>
	<path d="M790.05,827.26c0-1.42,0.22-2.69,0.65-3.82c0.43-1.13,1.05-2.09,1.85-2.88c0.8-0.79,1.77-1.4,2.92-1.82
		c1.14-0.42,2.43-0.63,3.88-0.63c1.63,0,3.03,0.23,4.21,0.68s2.14,1.08,2.9,1.89c0.76,0.8,1.31,1.77,1.66,2.9
		c0.35,1.13,0.52,2.36,0.52,3.68c0,1.42-0.21,2.7-0.63,3.82c-0.42,1.13-1.03,2.09-1.83,2.88c-0.8,0.79-1.78,1.4-2.93,1.82
		c-1.15,0.42-2.45,0.63-3.89,0.63c-1.58,0-2.96-0.23-4.12-0.68c-1.17-0.45-2.13-1.08-2.9-1.89c-0.77-0.8-1.34-1.77-1.71-2.9
		C790.24,829.82,790.05,828.59,790.05,827.26z M795.46,827.26c0,1.05,0.06,2.01,0.19,2.88c0.13,0.87,0.35,1.61,0.68,2.22
		s0.77,1.08,1.33,1.41c0.56,0.34,1.28,0.51,2.17,0.51c0.51,0,0.98-0.12,1.4-0.37s0.78-0.64,1.08-1.19c0.3-0.55,0.53-1.27,0.68-2.17
		c0.15-0.9,0.23-2,0.23-3.3c0-1.07-0.06-2.04-0.19-2.9s-0.35-1.59-0.66-2.2s-0.74-1.08-1.27-1.41c-0.54-0.34-1.21-0.51-2.03-0.51
		c-0.61,0-1.13,0.12-1.57,0.37c-0.44,0.24-0.82,0.64-1.12,1.19c-0.3,0.55-0.53,1.27-0.68,2.17S795.46,825.96,795.46,827.26z"/>
	<path d="M826.82,822.55c-0.28,0.14-0.61,0.37-0.98,0.7c-0.37,0.33-0.71,0.86-1.01,1.61v8.97c0.46,0.05,0.93,0.13,1.4,0.26
		c0.47,0.13,0.93,0.32,1.4,0.58v1.33H817.5v-1.33c0.42-0.23,0.81-0.41,1.19-0.53c0.37-0.12,0.75-0.22,1.12-0.32v-12.85l-2.3-0.28
		v-1.33c0.37-0.16,0.83-0.31,1.38-0.45s1.11-0.26,1.69-0.37c0.58-0.11,1.15-0.19,1.69-0.26c0.55-0.07,1.01-0.13,1.38-0.17h1.19v4.64
		h0.14c0.19-0.51,0.46-1.05,0.82-1.61s0.79-1.07,1.28-1.54c0.49-0.46,1.02-0.84,1.61-1.12c0.58-0.28,1.19-0.41,1.82-0.38
		c0.26,0.33,0.48,0.79,0.66,1.38c0.19,0.59,0.34,1.16,0.45,1.69v1.36H826.82z"/>
	<path d="M849.46,835.99h-9.64v-1.33c0.35-0.19,0.71-0.34,1.08-0.47s0.78-0.25,1.22-0.37v-12.85l-2.3-0.28v-1.33
		c0.35-0.14,0.79-0.28,1.31-0.42c0.52-0.14,1.08-0.26,1.66-0.37c0.58-0.1,1.15-0.2,1.71-0.28c0.56-0.08,1.05-0.14,1.47-0.19h1.19
		v15.71c0.46,0.12,0.88,0.24,1.26,0.37c0.37,0.13,0.72,0.29,1.05,0.47V835.99z M841.6,812.8c0-0.82,0.28-1.46,0.83-1.92
		c0.55-0.47,1.27-0.7,2.14-0.7c0.88,0,1.59,0.23,2.14,0.7c0.55,0.47,0.83,1.11,0.83,1.92c0,0.79-0.28,1.42-0.83,1.89
		c-0.55,0.47-1.27,0.7-2.14,0.7c-0.87,0-1.59-0.23-2.14-0.7C841.87,814.22,841.6,813.59,841.6,812.8z"/>
	<path d="M858.4,827.26c0-1.42,0.21-2.69,0.65-3.82c0.43-1.13,1.05-2.09,1.85-2.88c0.8-0.79,1.77-1.4,2.92-1.82
		c1.14-0.42,2.43-0.63,3.88-0.63c1.63,0,3.03,0.23,4.21,0.68s2.14,1.08,2.9,1.89c0.76,0.8,1.31,1.77,1.66,2.9
		c0.35,1.13,0.52,2.36,0.52,3.68c0,1.42-0.21,2.7-0.63,3.82c-0.42,1.13-1.03,2.09-1.83,2.88c-0.8,0.79-1.78,1.4-2.93,1.82
		c-1.15,0.42-2.45,0.63-3.89,0.63c-1.58,0-2.96-0.23-4.12-0.68c-1.17-0.45-2.13-1.08-2.9-1.89c-0.77-0.8-1.34-1.77-1.71-2.9
		C858.58,829.82,858.4,828.59,858.4,827.26z M863.81,827.26c0,1.05,0.06,2.01,0.19,2.88c0.13,0.87,0.35,1.61,0.68,2.22
		s0.77,1.08,1.33,1.41c0.56,0.34,1.28,0.51,2.17,0.51c0.51,0,0.98-0.12,1.4-0.37s0.78-0.64,1.08-1.19c0.3-0.55,0.53-1.27,0.68-2.17
		c0.15-0.9,0.23-2,0.23-3.3c0-1.07-0.06-2.04-0.19-2.9s-0.35-1.59-0.66-2.2s-0.74-1.08-1.27-1.41c-0.54-0.34-1.21-0.51-2.03-0.51
		c-0.61,0-1.13,0.12-1.57,0.37c-0.44,0.24-0.82,0.64-1.12,1.19c-0.3,0.55-0.53,1.27-0.68,2.17S863.81,825.96,863.81,827.26z"/>
	<path d="M918.43,833.06c-0.19,0.4-0.48,0.8-0.89,1.21c-0.41,0.41-0.91,0.77-1.5,1.08c-0.59,0.31-1.28,0.57-2.06,0.77
		c-0.78,0.2-1.62,0.3-2.53,0.3c-1.44,0-2.72-0.22-3.84-0.65c-1.12-0.43-2.05-1.05-2.79-1.85c-0.75-0.8-1.31-1.76-1.69-2.88
		c-0.38-1.12-0.58-2.38-0.58-3.77c0-2.98,0.78-5.25,2.34-6.81c1.56-1.56,3.72-2.34,6.5-2.34c1.19,0,2.3,0.16,3.33,0.49
		c1.04,0.33,1.9,0.86,2.58,1.61c0.69,0.75,1.16,1.72,1.43,2.93c0.27,1.21,0.25,2.69-0.05,4.44h-10.72c0.02,1.84,0.49,3.31,1.41,4.4
		c0.92,1.09,2.28,1.64,4.07,1.64c0.77,0,1.57-0.12,2.39-0.35c0.83-0.23,1.47-0.54,1.94-0.91L918.43,833.06z M911.22,820.1
		c-0.46,0-0.87,0.08-1.23,0.24c-0.36,0.16-0.67,0.46-0.94,0.89c-0.27,0.43-0.48,1.01-0.64,1.75c-0.16,0.73-0.28,1.66-0.35,2.78h5.59
		c0.16-1.82,0.06-3.21-0.31-4.19S912.26,820.1,911.22,820.1z"/>
	<path d="M937.92,835.99h-9.64v-1.33c0.77-0.37,1.54-0.65,2.3-0.84v-21.23l-2.65-0.28v-1.33c0.3-0.14,0.72-0.28,1.26-0.42
		c0.54-0.14,1.11-0.26,1.73-0.37c0.62-0.1,1.23-0.2,1.85-0.28c0.62-0.08,1.17-0.14,1.66-0.19h1.19v24.1
		c0.77,0.19,1.54,0.47,2.3,0.84V835.99z"/>
	<path d="M962.75,833.06c-0.19,0.4-0.48,0.8-0.89,1.21c-0.41,0.41-0.91,0.77-1.5,1.08c-0.59,0.31-1.28,0.57-2.06,0.77
		c-0.78,0.2-1.62,0.3-2.53,0.3c-1.44,0-2.72-0.22-3.84-0.65c-1.12-0.43-2.05-1.05-2.79-1.85c-0.75-0.8-1.31-1.76-1.69-2.88
		c-0.38-1.12-0.58-2.38-0.58-3.77c0-2.98,0.78-5.25,2.34-6.81c1.56-1.56,3.72-2.34,6.5-2.34c1.19,0,2.3,0.16,3.33,0.49
		c1.04,0.33,1.9,0.86,2.58,1.61c0.69,0.75,1.16,1.72,1.43,2.93c0.27,1.21,0.25,2.69-0.05,4.44h-10.72c0.02,1.84,0.49,3.31,1.41,4.4
		c0.92,1.09,2.28,1.64,4.07,1.64c0.77,0,1.57-0.12,2.39-0.35c0.83-0.23,1.47-0.54,1.94-0.91L962.75,833.06z M955.53,820.1
		c-0.46,0-0.87,0.08-1.23,0.24c-0.36,0.16-0.67,0.46-0.94,0.89c-0.27,0.43-0.48,1.01-0.64,1.75c-0.16,0.73-0.28,1.66-0.35,2.78h5.59
		c0.16-1.82,0.06-3.21-0.31-4.19S956.58,820.1,955.53,820.1z"/>
	<path d="M987.44,833.16c-0.16,0.47-0.43,0.89-0.8,1.28c-0.37,0.38-0.82,0.73-1.34,1.03c-0.52,0.3-1.12,0.54-1.78,0.7
		c-0.66,0.16-1.36,0.24-2.08,0.24c-1.54,0-2.86-0.22-3.96-0.65c-1.11-0.43-2.02-1.05-2.74-1.85c-0.72-0.8-1.26-1.77-1.61-2.9
		c-0.35-1.13-0.52-2.38-0.52-3.75c0-2.96,0.81-5.22,2.43-6.79c1.62-1.57,3.92-2.36,6.9-2.36c1.14,0,2.19,0.12,3.14,0.37
		c0.95,0.24,1.75,0.53,2.38,0.86c-0.05,0.4-0.11,0.83-0.19,1.31c-0.08,0.48-0.17,0.96-0.28,1.43s-0.23,0.94-0.37,1.4
		c-0.14,0.45-0.28,0.83-0.42,1.13h-1.71l-1.47-4.16c-0.16-0.12-0.34-0.2-0.52-0.26c-0.19-0.06-0.47-0.09-0.84-0.09
		c-0.61,0-1.13,0.11-1.57,0.33c-0.44,0.22-0.82,0.6-1.13,1.13c-0.31,0.54-0.55,1.25-0.7,2.13s-0.23,1.98-0.23,3.28
		c0,0.96,0.1,1.83,0.31,2.64c0.21,0.8,0.53,1.5,0.96,2.1s0.97,1.06,1.62,1.4c0.65,0.34,1.42,0.51,2.3,0.51
		c0.82,0,1.53-0.12,2.13-0.35c0.61-0.23,1.12-0.51,1.54-0.84L987.44,833.16z"/>
	<path d="M995.68,819.4c0.88-0.57,1.82-0.98,2.79-1.22v-2.83c0.19-0.14,0.65-0.34,1.38-0.61c0.73-0.27,1.55-0.48,2.46-0.65h1.19
		v4.44h4.61v2.27h-4.61v9c0,1.44,0.18,2.43,0.54,2.99s0.96,0.83,1.8,0.83c0.42,0,0.89-0.03,1.41-0.09c0.52-0.06,1.01-0.17,1.45-0.33
		l0.24,1.15c-0.21,0.21-0.52,0.43-0.93,0.66s-0.87,0.45-1.4,0.66c-0.52,0.21-1.09,0.38-1.71,0.52s-1.26,0.21-1.94,0.21
		c-1.51,0-2.64-0.39-3.39-1.18c-0.75-0.79-1.12-2.06-1.12-3.83v-10.6h-2.79V819.4z"/>
	<path d="M1026.45,822.55c-0.28,0.14-0.61,0.37-0.98,0.7c-0.37,0.33-0.71,0.86-1.01,1.61v8.97c0.46,0.05,0.93,0.13,1.4,0.26
		c0.47,0.13,0.93,0.32,1.4,0.58v1.33h-10.13v-1.33c0.42-0.23,0.81-0.41,1.19-0.53c0.37-0.12,0.75-0.22,1.12-0.32v-12.85l-2.3-0.28
		v-1.33c0.37-0.16,0.83-0.31,1.38-0.45s1.11-0.26,1.69-0.37c0.58-0.11,1.15-0.19,1.69-0.26c0.55-0.07,1.01-0.13,1.38-0.17h1.19v4.64
		h0.14c0.19-0.51,0.46-1.05,0.82-1.61s0.79-1.07,1.28-1.54c0.49-0.46,1.02-0.84,1.61-1.12c0.58-0.28,1.19-0.41,1.82-0.38
		c0.26,0.33,0.48,0.79,0.66,1.38c0.19,0.59,0.34,1.16,0.45,1.69v1.36H1026.45z"/>
	<path d="M1039.44,827.26c0-1.42,0.21-2.69,0.65-3.82c0.43-1.13,1.05-2.09,1.85-2.88c0.8-0.79,1.77-1.4,2.92-1.82
		c1.14-0.42,2.43-0.63,3.88-0.63c1.63,0,3.03,0.23,4.21,0.68s2.14,1.08,2.9,1.89c0.76,0.8,1.31,1.77,1.66,2.9
		c0.35,1.13,0.52,2.36,0.52,3.68c0,1.42-0.21,2.7-0.63,3.82c-0.42,1.13-1.03,2.09-1.83,2.88c-0.8,0.79-1.78,1.4-2.93,1.82
		c-1.15,0.42-2.45,0.63-3.89,0.63c-1.58,0-2.96-0.23-4.12-0.68c-1.17-0.45-2.13-1.08-2.9-1.89c-0.77-0.8-1.34-1.77-1.71-2.9
		C1039.63,829.82,1039.44,828.59,1039.44,827.26z M1044.86,827.26c0,1.05,0.06,2.01,0.19,2.88c0.13,0.87,0.35,1.61,0.68,2.22
		s0.77,1.08,1.33,1.41c0.56,0.34,1.28,0.51,2.17,0.51c0.51,0,0.98-0.12,1.4-0.37s0.78-0.64,1.08-1.19c0.3-0.55,0.53-1.27,0.68-2.17
		c0.15-0.9,0.23-2,0.23-3.3c0-1.07-0.06-2.04-0.19-2.9s-0.35-1.59-0.66-2.2s-0.74-1.08-1.27-1.41c-0.54-0.34-1.21-0.51-2.03-0.51
		c-0.61,0-1.13,0.12-1.57,0.37c-0.44,0.24-0.82,0.64-1.12,1.19c-0.3,0.55-0.53,1.27-0.68,2.17S1044.86,825.96,1044.86,827.26z"/>
	<path d="M1078.91,832.88c-0.16,0.47-0.4,0.91-0.7,1.33c-0.3,0.42-0.66,0.79-1.08,1.12s-0.9,0.59-1.45,0.79
		c-0.55,0.2-1.16,0.3-1.83,0.3c-2.12,0-3.76-0.72-4.92-2.17c-1.17-1.44-1.75-3.62-1.75-6.53c0-3.19,0.86-5.57,2.57-7.14
		c1.71-1.57,4.14-2.36,7.28-2.36c0.65,0,1.34,0.04,2.06,0.1c0.72,0.07,1.41,0.16,2.06,0.26c0.65,0.11,1.24,0.22,1.76,0.35
		c0.52,0.13,0.91,0.25,1.17,0.37v21.51c0.77,0.14,1.54,0.42,2.3,0.84v1.33h-9.64v-1.33c0.72-0.38,1.49-0.66,2.3-0.84v-7.92H1078.91z
		 M1075.59,833.62c1.75,0,2.9-1.12,3.46-3.35v-9.57c-0.4-0.12-0.82-0.23-1.26-0.33s-0.93-0.16-1.47-0.16
		c-1.35,0-2.31,0.54-2.88,1.61c-0.57,1.07-0.86,2.9-0.86,5.48c0,2.03,0.21,3.59,0.63,4.68
		C1073.63,833.07,1074.42,833.62,1075.59,833.62z"/>
	<path d="M1096.12,829.06c0-1.47,0.04-2.83,0.1-4.09c0.07-1.26,0.11-2.59,0.11-3.99l-2.31-0.28v-1.33c0.37-0.14,0.83-0.28,1.38-0.42
		s1.11-0.26,1.69-0.37c0.58-0.1,1.15-0.2,1.69-0.28c0.55-0.08,1.01-0.14,1.38-0.19h1.19c0,1.75-0.04,3.46-0.11,5.15
		c-0.07,1.69-0.1,3.35-0.1,4.98c0,1.91,0.19,3.28,0.58,4.12c0.38,0.84,1.1,1.26,2.15,1.26c0.72,0,1.39-0.27,2.01-0.82
		c0.62-0.55,1.12-1.43,1.52-2.64v-9.17l-2.27-0.28v-1.33c0.35-0.14,0.79-0.28,1.31-0.42s1.07-0.26,1.64-0.37
		c0.57-0.1,1.13-0.2,1.69-0.28c0.56-0.08,1.05-0.14,1.47-0.19h1.19v15.4l2.31,0.28v1.22c-0.33,0.14-0.73,0.28-1.22,0.42
		s-1,0.27-1.54,0.4c-0.54,0.13-1.06,0.23-1.59,0.31c-0.52,0.08-1,0.15-1.41,0.19h-1.19l-0.24-4.16h-0.14
		c-0.12,0.49-0.33,0.98-0.63,1.48c-0.3,0.5-0.69,0.96-1.17,1.36c-0.48,0.41-1.04,0.74-1.69,1c-0.65,0.26-1.37,0.38-2.17,0.38
		c-0.88,0-1.67-0.11-2.36-0.33c-0.69-0.22-1.27-0.61-1.76-1.17s-0.86-1.31-1.12-2.26C1096.25,831.7,1096.12,830.51,1096.12,829.06z"
		/>
	<path d="M1133.07,835.99h-9.64v-1.33c0.35-0.19,0.71-0.34,1.08-0.47s0.78-0.25,1.22-0.37v-12.85l-2.3-0.28v-1.33
		c0.35-0.14,0.79-0.28,1.31-0.42c0.52-0.14,1.08-0.26,1.66-0.37c0.58-0.1,1.15-0.2,1.71-0.28c0.56-0.08,1.05-0.14,1.47-0.19h1.19
		v15.71c0.46,0.12,0.88,0.24,1.26,0.37c0.37,0.13,0.72,0.29,1.05,0.47V835.99z M1128.95,809.35c0.19-0.05,0.49-0.06,0.93-0.05
		c0.43,0.01,0.88,0.05,1.34,0.12c0.46,0.07,0.89,0.17,1.27,0.3s0.63,0.26,0.75,0.4v0.84l-6.67,5.41l-1.4-0.77L1128.95,809.35z"/>
	<path d="M1161.68,835.99h-8.73v-1.33c0.23-0.14,0.5-0.29,0.79-0.44s0.61-0.29,0.96-0.4v-6.97c0-1.07-0.03-1.98-0.09-2.73
		c-0.06-0.75-0.18-1.36-0.37-1.84c-0.19-0.48-0.44-0.83-0.77-1.05c-0.33-0.22-0.75-0.33-1.26-0.33c-0.75,0-1.39,0.29-1.94,0.86
		c-0.55,0.57-0.95,1.33-1.21,2.26v9.8c0.63,0.19,1.21,0.47,1.75,0.84v1.33h-9.08v-1.33c0.33-0.16,0.69-0.32,1.08-0.46
		s0.8-0.27,1.22-0.39v-12.85l-2.3-0.28v-1.33c0.37-0.16,0.83-0.31,1.38-0.45s1.11-0.26,1.69-0.37c0.58-0.11,1.15-0.19,1.69-0.26
		c0.55-0.07,1.01-0.13,1.38-0.17h1.19v3.95h0.03c0.37-1.09,1.03-2.03,1.97-2.79c0.94-0.77,2.08-1.15,3.41-1.15
		c0.56,0,1.11,0.06,1.64,0.17c0.54,0.12,1.03,0.33,1.48,0.65s0.84,0.75,1.17,1.31c0.33,0.56,0.56,1.28,0.7,2.17
		c0.42-1.28,1.12-2.32,2.1-3.11c0.98-0.79,2.17-1.19,3.56-1.19c0.86,0,1.62,0.11,2.29,0.33c0.66,0.22,1.22,0.61,1.68,1.17
		c0.45,0.56,0.8,1.32,1.03,2.27c0.23,0.96,0.35,2.17,0.35,3.64v8.29c0.79,0.14,1.56,0.42,2.31,0.84v1.33h-9.08v-1.33
		c0.54-0.35,1.12-0.63,1.75-0.84v-7.6c0-1.82-0.17-3.16-0.51-4.03c-0.34-0.86-1.07-1.29-2.18-1.29c-0.84,0-1.5,0.32-1.97,0.95
		c-0.48,0.63-0.83,1.47-1.07,2.52v9.45c0.4,0.12,0.75,0.25,1.07,0.39c0.31,0.14,0.61,0.29,0.89,0.46V835.99z"/>
	<path d="M1190.91,835.99h-9.64v-1.33c0.35-0.19,0.71-0.34,1.08-0.47s0.78-0.25,1.22-0.37v-12.85l-2.3-0.28v-1.33
		c0.35-0.14,0.79-0.28,1.31-0.42c0.52-0.14,1.08-0.26,1.66-0.37c0.58-0.1,1.15-0.2,1.71-0.28c0.56-0.08,1.05-0.14,1.47-0.19h1.19
		v15.71c0.46,0.12,0.88,0.24,1.26,0.37c0.37,0.13,0.72,0.29,1.05,0.47V835.99z M1183.05,812.8c0-0.82,0.28-1.46,0.83-1.92
		c0.55-0.47,1.27-0.7,2.14-0.7c0.88,0,1.59,0.23,2.14,0.7c0.55,0.47,0.83,1.11,0.83,1.92c0,0.79-0.28,1.42-0.83,1.89
		c-0.55,0.47-1.27,0.7-2.14,0.7c-0.87,0-1.59-0.23-2.14-0.7C1183.33,814.22,1183.05,813.59,1183.05,812.8z"/>
	<path d="M1214.69,833.16c-0.16,0.47-0.43,0.89-0.8,1.28c-0.37,0.38-0.82,0.73-1.34,1.03c-0.52,0.3-1.12,0.54-1.78,0.7
		c-0.66,0.16-1.36,0.24-2.08,0.24c-1.54,0-2.86-0.22-3.96-0.65c-1.11-0.43-2.02-1.05-2.74-1.85c-0.72-0.8-1.26-1.77-1.61-2.9
		c-0.35-1.13-0.52-2.38-0.52-3.75c0-2.96,0.81-5.22,2.43-6.79c1.62-1.57,3.92-2.36,6.9-2.36c1.14,0,2.19,0.12,3.14,0.37
		c0.95,0.24,1.75,0.53,2.38,0.86c-0.05,0.4-0.11,0.83-0.19,1.31c-0.08,0.48-0.17,0.96-0.28,1.43s-0.23,0.94-0.37,1.4
		c-0.14,0.45-0.28,0.83-0.42,1.13h-1.71l-1.47-4.16c-0.16-0.12-0.34-0.2-0.52-0.26c-0.19-0.06-0.47-0.09-0.84-0.09
		c-0.61,0-1.13,0.11-1.57,0.33c-0.44,0.22-0.82,0.6-1.13,1.13c-0.31,0.54-0.55,1.25-0.7,2.13s-0.23,1.98-0.23,3.28
		c0,0.96,0.1,1.83,0.31,2.64c0.21,0.8,0.53,1.5,0.96,2.1s0.97,1.06,1.62,1.4c0.65,0.34,1.42,0.51,2.3,0.51
		c0.82,0,1.53-0.12,2.13-0.35c0.61-0.23,1.12-0.51,1.54-0.84L1214.69,833.16z"/>
	<path d="M1223.74,827.26c0-1.42,0.21-2.69,0.65-3.82c0.43-1.13,1.05-2.09,1.85-2.88c0.8-0.79,1.77-1.4,2.92-1.82
		c1.14-0.42,2.43-0.63,3.88-0.63c1.63,0,3.03,0.23,4.21,0.68s2.14,1.08,2.9,1.89c0.76,0.8,1.31,1.77,1.66,2.9
		c0.35,1.13,0.52,2.36,0.52,3.68c0,1.42-0.21,2.7-0.63,3.82c-0.42,1.13-1.03,2.09-1.83,2.88c-0.8,0.79-1.78,1.4-2.93,1.82
		c-1.15,0.42-2.45,0.63-3.89,0.63c-1.58,0-2.96-0.23-4.12-0.68c-1.17-0.45-2.13-1.08-2.9-1.89c-0.77-0.8-1.34-1.77-1.71-2.9
		C1223.92,829.82,1223.74,828.59,1223.74,827.26z M1229.15,827.26c0,1.05,0.06,2.01,0.19,2.88c0.13,0.87,0.35,1.61,0.68,2.22
		s0.77,1.08,1.33,1.41c0.56,0.34,1.28,0.51,2.17,0.51c0.51,0,0.98-0.12,1.4-0.37s0.78-0.64,1.08-1.19c0.3-0.55,0.53-1.27,0.68-2.17
		c0.15-0.9,0.23-2,0.23-3.3c0-1.07-0.06-2.04-0.19-2.9s-0.35-1.59-0.66-2.2s-0.74-1.08-1.27-1.41c-0.54-0.34-1.21-0.51-2.03-0.51
		c-0.61,0-1.13,0.12-1.57,0.37c-0.44,0.24-0.82,0.64-1.12,1.19c-0.3,0.55-0.53,1.27-0.68,2.17S1229.15,825.96,1229.15,827.26z"/>
</g>
<circle class="st3" cx="932.49" cy="408.35" r="36.38"/>
<circle class="st3" cx="990.7" cy="380.7" r="14.55"/>
<circle class="st3" cx="968.87" cy="350.14" r="7.28"/>
<circle class="st3" cx="995.06" cy="312.31" r="18.92"/>
<circle class="st3" cx="1035.81" cy="273.02" r="26.19"/>
<circle class="st3" cx="1006.7" cy="220.63" r="11.64"/>
<circle class="st3" cx="994.74" cy="257.9" r="8.68"/>
<circle class="st4" cx="928.5" cy="387.5" r="12.5"/>
<circle class="st4" cx="987" cy="376" r="5"/>
<circle class="st4" cx="969.5" cy="347.5" r="2.5"/>
<circle class="st4" cx="992" cy="306" r="9"/>
<circle class="st4" cx="1033.5" cy="265.5" r="13.5"/>
<circle class="st4" cx="994.26" cy="252.3" r="2.7"/>
<ellipse transform="matrix(0.9828 -0.1845 0.1845 0.9828 -22.9364 189.4211)" class="st4" cx="1006.64" cy="217.99" rx="5.33" ry="5.12"/>
<path class="st4" d="M786.66,433.63L771,428c0,0-71.41,39.45-47.2,75.72C748,540,771,512,771,512s-24-5-29-22
	S786.66,433.63,786.66,433.63z"/>
<g>
	<path class="st4" d="M571.12,690.64c8.1,4.17,14.36,10.11,18.77,17.83c4.41,7.71,6.62,16.66,6.62,26.85s-2.21,19.09-6.62,26.7
		c-4.42,7.62-10.67,13.51-18.77,17.68c-8.1,4.17-17.49,6.26-28.16,6.26h-35.51V684.38h35.51
		C553.63,684.38,563.01,686.47,571.12,690.64z M566.97,759.9c5.82-5.82,8.73-14.02,8.73-24.59c0-10.57-2.91-18.84-8.73-24.81
		c-5.82-5.97-14.07-8.95-24.74-8.95h-14.41v67.08h14.41C552.9,768.63,561.15,765.72,566.97,759.9z"/>
	<path class="st4" d="M643.07,700.82v25.47h34.2v16.15h-34.2v26.92h38.56v16.59H622.7V684.23h58.94v16.59H643.07z"/>
	<path class="st4" d="M773.75,684.38v16.44H731.4v26.05h32.45v16.15H731.4v42.93h-20.37V684.38H773.75z"/>
	<path class="st4" d="M861.35,766.6H820.9l-6.69,19.35h-21.39l36.53-101.72h23.72l36.53,101.72h-21.54L861.35,766.6z M855.82,750.3
		l-14.7-42.49l-14.7,42.49H855.82z"/>
	<path class="st4" d="M980.09,769.8h33.47v16.15h-53.84V684.38h20.37V769.8z"/>
	<path class="st4" d="M1037.06,723.67c3.25-6.3,7.66-11.15,13.24-14.55c5.58-3.39,11.81-5.09,18.7-5.09
		c6.01,0,11.28,1.21,15.79,3.64c4.51,2.43,8.12,5.48,10.84,9.17v-11.5h20.52v80.62h-20.52v-11.79c-2.62,3.78-6.23,6.91-10.84,9.39
		c-4.61,2.47-9.92,3.71-15.93,3.71c-6.79,0-12.98-1.75-18.55-5.24c-5.58-3.49-9.99-8.42-13.24-14.77
		c-3.25-6.35-4.88-13.65-4.88-21.9C1032.19,737.2,1033.81,729.98,1037.06,723.67z M1092.72,732.91c-1.94-3.54-4.56-6.26-7.86-8.15
		c-3.3-1.89-6.84-2.84-10.62-2.84c-3.78,0-7.28,0.92-10.48,2.76c-3.2,1.84-5.8,4.54-7.79,8.08c-1.99,3.54-2.98,7.74-2.98,12.59
		c0,4.85,0.99,9.09,2.98,12.73c1.99,3.64,4.61,6.43,7.86,8.37c3.25,1.94,6.72,2.91,10.41,2.91c3.78,0,7.32-0.95,10.62-2.84
		c3.3-1.89,5.92-4.61,7.86-8.15c1.94-3.54,2.91-7.79,2.91-12.73S1094.66,736.45,1092.72,732.91z"/>
	<path class="st4" d="M1178.21,707.66c4.61-2.42,9.87-3.64,15.79-3.64c6.89,0,13.12,1.7,18.7,5.09c5.58,3.4,9.99,8.22,13.24,14.48
		c3.25,6.26,4.88,13.51,4.88,21.75c0,8.25-1.63,15.55-4.88,21.9c-3.25,6.36-7.66,11.28-13.24,14.77c-5.58,3.49-11.81,5.24-18.7,5.24
		c-6.02,0-11.28-1.19-15.79-3.57c-4.51-2.38-8.13-5.46-10.84-9.24v11.5H1147V678.27h20.37v38.85
		C1169.99,713.24,1173.61,710.09,1178.21,707.66z M1207.03,732.76c-1.99-3.54-4.61-6.23-7.86-8.08c-3.25-1.84-6.77-2.76-10.55-2.76
		c-3.69,0-7.16,0.95-10.4,2.84c-3.25,1.89-5.87,4.63-7.86,8.22c-1.99,3.59-2.98,7.81-2.98,12.66c0,4.85,0.99,9.07,2.98,12.66
		c1.99,3.59,4.61,6.33,7.86,8.22c3.25,1.89,6.72,2.84,10.4,2.84c3.78,0,7.3-0.97,10.55-2.91c3.25-1.94,5.87-4.71,7.86-8.29
		c1.99-3.59,2.98-7.86,2.98-12.81C1210.01,740.5,1209.01,736.31,1207.03,732.76z"/>
	<path class="st4" d="M1269.67,783.7c-5.24-2.38-9.39-5.6-12.44-9.68c-3.06-4.07-4.73-8.59-5.02-13.53h20.52
		c0.39,3.11,1.91,5.67,4.58,7.71c2.67,2.04,5.99,3.06,9.97,3.06c3.88,0,6.91-0.78,9.09-2.33c2.18-1.55,3.27-3.54,3.27-5.97
		c0-2.62-1.33-4.58-4-5.89c-2.67-1.31-6.91-2.74-12.73-4.29c-6.02-1.46-10.94-2.96-14.77-4.51c-3.83-1.55-7.13-3.93-9.9-7.13
		c-2.76-3.2-4.15-7.52-4.15-12.95c0-4.46,1.28-8.54,3.86-12.22c2.57-3.69,6.26-6.6,11.06-8.73c4.8-2.13,10.45-3.2,16.95-3.2
		c9.6,0,17.27,2.4,22.99,7.2c5.72,4.8,8.88,11.28,9.46,19.43h-19.5c-0.29-3.2-1.63-5.75-4-7.64c-2.38-1.89-5.55-2.84-9.53-2.84
		c-3.69,0-6.53,0.68-8.51,2.04c-1.99,1.36-2.98,3.25-2.98,5.68c0,2.72,1.36,4.78,4.07,6.18c2.71,1.41,6.94,2.84,12.66,4.29
		c5.82,1.46,10.62,2.96,14.41,4.51c3.78,1.55,7.06,3.95,9.82,7.2c2.76,3.25,4.19,7.54,4.29,12.88c0,4.66-1.29,8.83-3.86,12.51
		c-2.57,3.69-6.26,6.57-11.06,8.66s-10.4,3.13-16.81,3.13C1280.83,787.26,1274.91,786.07,1269.67,783.7z"/>
</g>
<g>
</g>
<g>
</g>
<g>
</g>
<g>
</g>
<g>
</g>
<g>
</g>
<g>
</g>
<g>
</g>
<g>
</g>
<g>
</g>
<g>
</g>
<g>
</g>
<g>
</g>
<g>
</g>
<g>
</g>
</svg>
